<?xml version="1.0" standalone="no"?>
<!DOCTYPE svg PUBLIC "-//W3C//DTD SVG 20010904//EN"
 "http://www.w3.org/TR/2001/REC-SVG-20010904/DTD/svg10.dtd">
<svg version="1.0" xmlns="http://www.w3.org/2000/svg"
 width="1280.000000pt" height="1225.000000pt" viewBox="0 0 1280.000000 1225.000000"
 preserveAspectRatio="xMidYMid meet">
<metadata>
Created by potrace 1.15, written by Peter Selinger 2001-2017
</metadata>
<g transform="translate(0.000000,1225.000000) scale(0.100000,-0.100000)"
fill="#000000" stroke="none">
<path d="M11236 12240 c-152 -19 -298 -62 -433 -128 -49 -24 -65 -27 -70 -17
-6 10 -42 -6 -141 -65 -158 -92 -159 -92 -145 -122 9 -20 2 -31 -59 -98 -128
-139 -247 -338 -298 -497 -20 -60 -27 -72 -49 -76 -16 -3 -29 1 -36 10 -10 13
-22 -3 -70 -88 -60 -108 -61 -110 -50 -146 6 -19 -22 -41 -277 -211 -340 -226
-844 -555 -1695 -1103 l-633 -407 -1 31 c-1 81 95 137 -1499 -873 -817 -517
-1495 -949 -1507 -959 -27 -23 -30 -62 -7 -96 l16 -24 -121 -78 c-987 -634
-1955 -1274 -1977 -1308 -9 -13 -16 -51 -18 -86 l-2 -62 -569 -343 c-400 -241
-581 -356 -607 -384 -41 -46 -64 -120 -53 -172 4 -18 18 -52 31 -75 13 -23 24
-44 24 -46 0 -3 -37 -34 -83 -70 -97 -76 -183 -165 -226 -232 -64 -102 -41 27
-512 -2774 -93 -558 -166 -1017 -162 -1021 10 -9 301 -56 306 -49 2 2 31 171
65 374 164 980 434 2570 514 3020 30 169 46 238 61 260 29 41 134 151 178 186
l36 28 48 -25 c59 -29 130 -32 183 -6 20 10 276 162 567 338 292 177 540 326
552 332 18 10 31 7 78 -18 31 -17 66 -30 77 -30 49 0 1040 520 2248 1179 l404
221 29 -28 c80 -76 112 -159 176 -457 68 -311 101 -441 135 -528 l33 -83 6
-2714 c4 -1492 8 -2715 11 -2717 4 -5 502 14 634 23 l82 6 0 2718 c0 2667 0
2720 20 2802 34 146 61 351 110 833 38 376 62 490 135 640 57 119 146 243 258
359 l92 94 630 345 c1751 958 2223 1211 2929 1571 l169 86 123 0 c68 0 124 4
124 8 0 4 -6 14 -12 21 -13 14 -12 14 52 -5 12 -3 20 -14 20 -26 0 -18 4 -20
33 -13 17 5 49 8 70 7 313 -14 475 -1 623 48 50 16 61 17 74 5 13 -12 31 -5
135 56 66 39 127 79 135 88 8 10 47 40 85 66 39 27 111 91 161 141 289 290
437 710 395 1120 -17 170 -53 297 -131 461 -222 470 -689 773 -1210 788 -80 2
-176 0 -214 -5z"/>
</g>
</svg>
