<svg width="194" height="194" viewBox="0 0 194 194" fill="none" xmlns="http://www.w3.org/2000/svg">
<path d="M86.5335 19.0978C64.466 19.9617 43.126 26.2819 28.1668 36.4062C19.0427 42.5597 13.4501 49.5012 12.177 56.1851C11.3888 60.338 13.2227 69.0073 17.8909 83.1784C27.1362 111.233 41.0345 141.288 54.1295 161.567C59.8131 170.357 64.6327 176.511 70.1496 182.043C74.6813 186.559 78.0763 189.196 81.9109 191.152C85.5787 193.016 88.3523 193.743 91.7624 193.743C97.1884 193.728 102.675 191.47 108.722 186.726C121.939 176.374 136.792 153.655 150.614 122.615C159.071 103.609 166.649 82.2084 169.969 67.9616C171.287 62.3083 171.666 58.6859 171.196 56.1851C169.923 49.5012 164.331 42.5597 155.207 36.4062C137.762 24.6147 111.951 18.1126 86.5335 19.0978Z" fill="black"/>
<path d="M65.736 63.904H66.144C67.072 63.904 67.992 64.072 68.904 64.408C69.816 64.728 70.632 65.184 71.352 65.776C72.072 66.368 72.648 67.08 73.08 67.912C73.528 68.728 73.752 69.624 73.752 70.6C73.752 71.64 73.608 72.512 73.32 73.216C73.032 73.904 72.624 74.472 72.096 74.92C71.568 75.368 70.936 75.72 70.2 75.976C69.464 76.216 68.648 76.416 67.752 76.576C68.312 76.528 68.936 76.424 69.624 76.264C70.328 76.104 70.984 75.824 71.592 75.424C72.216 75.008 72.736 74.44 73.152 73.72C73.568 72.984 73.776 72.024 73.776 70.84C73.776 69.384 73.368 68.072 72.552 66.904C71.736 65.736 70.52 64.856 68.904 64.264C68.504 64.088 68.088 63.952 67.656 63.856C67.24 63.744 66.816 63.688 66.384 63.688C66.528 63.608 66.72 63.568 66.96 63.568C67.2 63.552 67.392 63.544 67.536 63.544C68.16 63.544 68.8 63.672 69.456 63.928C70.128 64.184 70.76 64.536 71.352 64.984C71.944 65.432 72.464 65.96 72.912 66.568C73.376 67.16 73.72 67.792 73.944 68.464C73.864 68.496 73.792 68.56 73.728 68.656C73.856 69.056 73.952 69.448 74.016 69.832C74.08 70.216 74.112 70.608 74.112 71.008C74.112 71.456 74.072 71.904 73.992 72.352C73.928 72.8 73.784 73.24 73.56 73.672C73.352 74.104 73.048 74.512 72.648 74.896C72.264 75.28 71.752 75.624 71.112 75.928C70.472 76.232 69.688 76.48 68.76 76.672C67.832 76.88 66.728 77.016 65.448 77.08C65.368 77.128 65.256 77.152 65.112 77.152C64.968 77.168 64.824 77.176 64.68 77.176H64.344C64.104 77.176 63.856 77.128 63.6 77.032C63.344 76.952 63.112 76.8 62.904 76.576C62.696 76.368 62.528 76.088 62.4 75.736C62.272 75.368 62.208 74.912 62.208 74.368V74.104C62.192 74.168 62.168 74.2 62.136 74.2C62.088 74.2 62.064 74.184 62.064 74.152V74.272C62.064 74.56 62.08 74.888 62.112 75.256C62.144 75.608 62.232 75.944 62.376 76.264C62.536 76.584 62.776 76.848 63.096 77.056C63.432 77.28 63.904 77.392 64.512 77.392C64.656 77.392 64.8 77.384 64.944 77.368C65.104 77.368 65.272 77.344 65.448 77.296C66.616 77.248 67.728 77.12 68.784 76.912C69.856 76.704 70.8 76.368 71.616 75.904C72.432 75.424 73.08 74.776 73.56 73.96C74.04 73.144 74.28 72.096 74.28 70.816C74.28 70.4 74.248 69.976 74.184 69.544C74.2 69.72 74.224 69.888 74.256 70.048C74.288 70.304 74.304 70.56 74.304 70.816C74.304 71.168 74.28 71.568 74.232 72.016C74.2 72.464 74.096 72.92 73.92 73.384C73.76 73.848 73.52 74.304 73.2 74.752C72.88 75.2 72.432 75.592 71.856 75.928C71.264 76.28 70.648 76.552 70.008 76.744C69.384 76.952 68.784 77.104 68.208 77.2C67.648 77.312 67.136 77.376 66.672 77.392C66.224 77.424 65.888 77.44 65.664 77.44H65.376C65.232 77.44 65.08 77.448 64.92 77.464C64.776 77.496 64.616 77.512 64.44 77.512H64.32C64.176 77.512 63.992 77.496 63.768 77.464C63.56 77.432 63.336 77.352 63.096 77.224C62.872 77.096 62.664 76.888 62.472 76.6C62.28 76.328 62.144 75.936 62.064 75.424C62.032 75.248 62.008 75.072 61.992 74.896C61.976 74.72 61.952 74.56 61.92 74.416C61.92 74.096 61.944 73.8 61.992 73.528C62.04 73.24 62.064 73.008 62.064 72.832V68.44L61.2 63.904C61.216 63.584 61.232 63.232 61.248 62.848C61.28 62.464 61.304 62.072 61.32 61.672C61.352 61.256 61.376 60.848 61.392 60.448C61.408 60.048 61.416 59.664 61.416 59.296C61.416 59.168 61.408 59.048 61.392 58.936C61.392 58.808 61.392 58.688 61.392 58.576C61.44 58.624 61.488 58.648 61.536 58.648C61.6 58.648 61.664 58.632 61.728 58.6C61.808 58.552 61.88 58.528 61.944 58.528C61.992 58.528 62.04 58.552 62.088 58.6C62.136 58.648 62.176 58.736 62.208 58.864C62.256 58.992 62.288 59.184 62.304 59.44C62.32 59.68 62.328 59.992 62.328 60.376H62.544C62.608 59.496 62.72 58.808 62.88 58.312C63.056 57.816 63.232 57.568 63.408 57.568C63.616 57.568 63.768 57.824 63.864 58.336C63.96 58.848 64.024 59.496 64.056 60.28C64.104 61.048 64.144 61.896 64.176 62.824C64.208 63.736 64.272 64.6 64.368 65.416C64.544 66.36 64.688 67.368 64.8 68.44C64.912 69.496 64.984 70.528 65.016 71.536C65.016 72.288 65.008 72.824 64.992 73.144C64.976 73.464 64.952 73.696 64.92 73.84V74.488L65.736 74.416C66.248 74.416 66.776 74.392 67.32 74.344C67.864 74.28 68.32 74.184 68.688 74.056C69.36 73.944 69.88 73.784 70.248 73.576C70.632 73.352 70.92 73.112 71.112 72.856C71.304 72.6 71.424 72.328 71.472 72.04C71.52 71.752 71.544 71.48 71.544 71.224C71.544 70.728 71.504 70.256 71.424 69.808C71.36 69.344 71.224 68.92 71.016 68.536C70.808 68.136 70.504 67.776 70.104 67.456C69.704 67.12 69.184 66.824 68.544 66.568C67.84 66.296 67.328 66.136 67.008 66.088C66.704 66.04 66.552 65.944 66.552 65.8C66.552 65.784 66.568 65.728 66.6 65.632C67.272 65.664 67.944 65.824 68.616 66.112C69.24 66.384 69.808 66.728 70.32 67.144C69.824 66.728 69.272 66.384 68.664 66.112C68.008 65.808 67.344 65.624 66.672 65.56C66.72 65.496 66.744 65.416 66.744 65.32C66.744 65.272 66.72 65.208 66.672 65.128H66.264C66.152 65.128 66.032 65.136 65.904 65.152C65.776 65.168 65.672 65.184 65.592 65.2C65.208 65.168 64.936 65.112 64.776 65.032C64.632 64.952 64.56 64.856 64.56 64.744C64.56 64.584 64.688 64.424 64.944 64.264C65.216 64.104 65.48 63.984 65.736 63.904ZM72.048 70.768C72.048 71.504 71.96 72.104 71.784 72.568C71.608 73.032 71.36 73.392 71.04 73.648C71.456 73.36 71.728 72.992 71.856 72.544C72 72.096 72.072 71.528 72.072 70.84C72.072 70.728 72.064 70.624 72.048 70.528C72.048 70.448 72.04 70.36 72.024 70.264C72.024 70.36 72.024 70.448 72.024 70.528C72.04 70.608 72.048 70.688 72.048 70.768ZM74.136 69.256L74.16 69.352L74.136 69.256ZM70.392 67.216C70.36 67.2 70.336 67.176 70.32 67.144C70.352 67.16 70.376 67.184 70.392 67.216ZM74.16 69.376C74.16 69.408 74.16 69.432 74.16 69.448C74.16 69.432 74.16 69.408 74.16 69.376ZM85.1396 69.712C84.7076 69.712 84.3796 69.704 84.1556 69.688C83.9476 69.672 83.7556 69.664 83.5796 69.664C83.0996 69.664 82.6756 69.688 82.3076 69.736C81.9396 69.784 81.6276 69.88 81.3716 70.024C81.1156 70.168 80.9236 70.376 80.7956 70.648C80.6676 70.92 80.6036 71.28 80.6036 71.728C80.6036 72.384 80.6756 72.872 80.8196 73.192C80.9796 73.496 81.1956 73.72 81.4676 73.864C81.7556 73.992 82.0996 74.072 82.4996 74.104C82.8996 74.136 83.3476 74.208 83.8436 74.32C84.1316 74.352 84.4196 74.376 84.7076 74.392C84.9956 74.392 85.2836 74.392 85.5716 74.392H87.2996C86.4996 74.344 85.6996 74.32 84.8996 74.32C84.1156 74.304 83.4036 74.232 82.7636 74.104C82.1396 73.976 81.6276 73.752 81.2276 73.432C80.8436 73.112 80.6516 72.624 80.6516 71.968C80.6516 71.44 80.7156 71.04 80.8436 70.768C80.9876 70.48 81.1716 70.272 81.3956 70.144C81.6356 70 81.9156 69.92 82.2356 69.904C82.5556 69.872 82.8996 69.856 83.2676 69.856C83.7156 69.856 84.1716 69.88 84.6356 69.928C84.2676 70.04 83.8916 70.128 83.5076 70.192C83.1396 70.24 82.7956 70.296 82.4756 70.36C82.1556 70.408 81.8756 70.48 81.6356 70.576C81.4116 70.656 81.2596 70.776 81.1796 70.936V72.016L80.9876 72.112C81.0516 72.512 81.1076 72.816 81.1556 73.024C81.2196 73.216 81.3796 73.368 81.6356 73.48C81.8916 73.576 82.2996 73.656 82.8596 73.72C83.4356 73.784 84.2676 73.888 85.3556 74.032H87.0836C87.3876 74.032 87.5636 74.024 87.6116 74.008C87.6756 73.976 87.7156 73.96 87.7316 73.96L87.5156 72.664C87.4836 72.344 87.4436 72.056 87.3956 71.8C87.3476 71.544 87.2836 71.272 87.2036 70.984C87.1876 71.032 87.1396 71.056 87.0596 71.056C87.1396 71.328 87.2036 71.616 87.2516 71.92C87.3156 72.224 87.3636 72.512 87.3956 72.784C87.4436 73.056 87.4756 73.288 87.4916 73.48C87.5236 73.672 87.5556 73.784 87.5876 73.816L87.4436 73.864C87.4116 73.88 87.3636 73.888 87.2996 73.888H87.1556C87.0436 73.888 86.9156 73.88 86.7716 73.864C86.6276 73.832 86.4436 73.816 86.2196 73.816H85.4276C84.8036 73.816 84.2276 73.784 83.6996 73.72C83.2036 73.656 82.7716 73.576 82.4036 73.48C82.7716 73.56 83.2196 73.624 83.7476 73.672C84.3076 73.736 84.8276 73.768 85.3076 73.768C85.5156 73.768 85.7316 73.768 85.9556 73.768C86.1956 73.752 86.4516 73.744 86.7236 73.744H87.5156C87.4676 73.696 87.4116 73.672 87.3476 73.672H87.2996C87.2356 72.568 87.0916 71.512 86.8676 70.504C86.6436 69.496 86.2836 68.616 85.7876 67.864C85.2916 67.096 84.6436 66.488 83.8436 66.04C83.0436 65.576 82.0436 65.344 80.8436 65.344C80.5076 65.344 80.1716 65.368 79.8356 65.416C79.4996 65.464 79.1556 65.528 78.8036 65.608C78.8356 65.576 78.8516 65.544 78.8516 65.512C78.8516 65.432 78.8196 65.36 78.7556 65.296C78.6916 65.216 78.6596 65.136 78.6596 65.056C78.6596 64.96 78.7556 64.872 78.9476 64.792C79.1556 64.696 79.5876 64.608 80.2436 64.528C80.2116 64.496 80.1876 64.448 80.1716 64.384C80.1716 64.32 80.1716 64.272 80.1716 64.24C79.3076 64.24 78.6356 64.224 78.1556 64.192C77.6756 64.144 77.4356 64.024 77.4356 63.832C77.4356 63.752 77.5316 63.64 77.7236 63.496C77.9316 63.352 78.2196 63.216 78.5876 63.088C78.9556 62.944 79.3956 62.824 79.9076 62.728C80.4356 62.616 81.0196 62.56 81.6596 62.56C82.8916 62.56 83.9476 62.752 84.8276 63.136C85.7076 63.504 86.4436 64 87.0356 64.624C87.6436 65.232 88.1316 65.928 88.4996 66.712C88.8836 67.496 89.1876 68.288 89.4116 69.088C89.6516 69.872 89.8276 70.64 89.9396 71.392C90.0516 72.128 90.1556 72.768 90.2516 73.312C90.2516 73.408 90.2516 73.504 90.2516 73.6C90.2676 73.696 90.2756 73.808 90.2756 73.936C90.2756 74.4 90.1876 74.808 90.0116 75.16C89.8516 75.496 89.6196 75.776 89.3156 76C89.0276 76.24 88.6836 76.416 88.2836 76.528C87.8996 76.656 87.4836 76.72 87.0356 76.72C86.6836 76.72 86.2276 76.712 85.6676 76.696C85.1076 76.68 84.5716 76.632 84.0596 76.552C83.7236 76.472 83.3556 76.408 82.9556 76.36C82.5556 76.328 82.1476 76.264 81.7316 76.168C81.3156 76.072 80.9076 75.936 80.5076 75.76C80.1236 75.584 79.7716 75.32 79.4516 74.968C79.1476 74.6 78.8996 74.128 78.7076 73.552C78.5316 72.976 78.4436 72.248 78.4436 71.368C78.4436 70.536 78.6356 69.872 79.0196 69.376C79.4036 68.864 79.8596 68.472 80.3876 68.2C80.9316 67.912 81.4836 67.728 82.0436 67.648C82.6036 67.552 83.0596 67.504 83.4116 67.504C83.8596 67.504 84.1556 67.536 84.2996 67.6C84.4436 67.664 84.5156 67.728 84.5156 67.792C84.5156 67.84 84.5076 67.88 84.4916 67.912C84.0916 67.912 83.5796 67.928 82.9556 67.96C82.3316 67.992 81.7236 68.096 81.1316 68.272C80.5556 68.448 80.0596 68.72 79.6436 69.088C79.2276 69.44 79.0196 69.944 79.0196 70.6C79.1636 70.008 79.4036 69.544 79.7396 69.208C80.0916 68.856 80.4916 68.6 80.9396 68.44C81.3876 68.264 81.8436 68.16 82.3076 68.128C82.7876 68.08 83.2196 68.056 83.6036 68.056H84.4196C84.3556 68.12 84.3236 68.184 84.3236 68.248C84.3236 68.312 84.3556 68.368 84.4196 68.416H85.3556C85.6116 68.464 85.7956 68.552 85.9076 68.68C86.0196 68.792 86.0756 68.896 86.0756 68.992C86.0756 69.136 86.0036 69.264 85.8596 69.376C85.7156 69.488 85.4756 69.6 85.1396 69.712ZM81.1076 75.52C81.5556 75.696 82.0116 75.832 82.4756 75.928C82.9556 76.024 83.4276 76.088 83.8916 76.12C84.3556 76.168 84.7876 76.192 85.1876 76.192C84.8676 76.16 84.5476 76.104 84.2276 76.024C83.8916 75.944 83.5956 75.872 83.3396 75.808C83.0676 75.744 82.7956 75.704 82.5236 75.688C82.2676 75.656 81.9956 75.616 81.7076 75.568C81.4356 75.52 81.1556 75.448 80.8676 75.352C80.5796 75.24 80.2916 75.08 80.0036 74.872C80.3076 75.144 80.6756 75.36 81.1076 75.52ZM81.3476 73C81.3316 72.984 81.3796 73.032 81.4916 73.144C81.5876 73.24 81.7156 73.312 81.8756 73.36C81.7956 73.328 81.6756 73.288 81.5156 73.24C81.3396 73.176 81.2516 73.08 81.2516 72.952L81.3476 73ZM81.9476 73.36C81.9316 73.36 81.9076 73.36 81.8756 73.36C81.8916 73.36 81.9156 73.36 81.9476 73.36ZM93.2681 74.464C93.2681 74.384 93.2921 74.288 93.3401 74.176C93.3881 74.064 93.4121 73.944 93.4121 73.816C93.4601 73.432 93.4921 73.16 93.5081 73C93.5241 72.824 93.5321 72.672 93.5321 72.544C93.5321 71.872 93.5081 71.152 93.4601 70.384C93.4281 69.6 93.3881 68.848 93.3401 68.128C93.3401 67.904 93.3321 67.64 93.3161 67.336C93.3161 67.032 93.3001 66.792 93.2681 66.616C93.3161 66.056 93.3561 65.504 93.3881 64.96C93.4201 64.416 93.4361 63.864 93.4361 63.304V62.704C93.4361 62.496 93.4281 62.288 93.4121 62.08C93.4601 62.128 93.5081 62.152 93.5561 62.152C93.6201 62.152 93.6841 62.128 93.7481 62.08C93.8281 62.032 93.9001 62.008 93.9641 62.008C94.0761 62.008 94.1641 62.128 94.2281 62.368C94.3081 62.608 94.3481 63.136 94.3481 63.952H94.5641C94.6441 63.056 94.7641 62.344 94.9241 61.816C95.1001 61.288 95.2761 61.024 95.4521 61.024C95.5321 61.024 95.6601 61.2 95.8361 61.552C96.0121 61.888 96.1001 62.424 96.1001 63.16L96.3641 62.728C96.5401 62.52 96.7321 62.304 96.9401 62.08C97.1641 61.856 97.4121 61.656 97.6841 61.48C97.9561 61.304 98.2601 61.16 98.5961 61.048C98.9321 60.92 99.3161 60.856 99.7481 60.856C100.58 60.856 101.3 61.048 101.908 61.432C102.532 61.8 103.052 62.288 103.468 62.896C103.884 63.488 104.22 64.168 104.476 64.936C104.748 65.688 104.956 66.456 105.1 67.24C105.244 68.008 105.34 68.752 105.388 69.472C105.436 70.192 105.46 70.808 105.46 71.32C105.46 71.784 105.428 72.064 105.364 72.16C105.316 72.24 105.22 72.288 105.076 72.304C105.044 71.072 104.964 69.816 104.836 68.536C104.708 67.256 104.404 66.016 103.924 64.816C104.356 66.08 104.628 67.328 104.74 68.56C104.868 69.776 104.932 71 104.932 72.232C104.836 72.184 104.748 72.16 104.668 72.16C104.604 72.16 104.548 72.184 104.5 72.232C104.5 72.36 104.508 72.496 104.524 72.64C104.54 72.768 104.548 72.896 104.548 73.024C104.564 73.152 104.572 73.272 104.572 73.384C104.476 73.752 104.38 74.016 104.284 74.176C104.188 74.336 104.1 74.416 104.02 74.416C103.924 74.416 103.844 74.376 103.78 74.296C103.716 74.2 103.652 74.088 103.588 73.96C103.54 73.832 103.484 73.696 103.42 73.552C103.372 73.392 103.3 73.24 103.204 73.096C103.236 72.824 103.26 72.608 103.276 72.448C103.292 72.272 103.3 72.128 103.3 72.016C103.3 71.584 103.292 71.064 103.276 70.456C103.26 69.848 103.212 69.216 103.132 68.56C103.068 67.888 102.956 67.224 102.796 66.568C102.652 65.896 102.444 65.304 102.172 64.792C101.916 64.264 101.588 63.84 101.188 63.52C100.788 63.184 100.308 63.016 99.7481 63.016C99.3641 63.016 99.0201 63.144 98.7161 63.4C98.4281 63.656 98.1721 63.984 97.9481 64.384C97.7401 64.784 97.5561 65.224 97.3961 65.704C97.2361 66.168 97.1081 66.616 97.0121 67.048C97.1561 66.6 97.3001 66.144 97.4441 65.68C97.6041 65.216 97.7881 64.792 97.9961 64.408C98.2201 64.024 98.4761 63.712 98.7641 63.472C99.0521 63.216 99.3881 63.088 99.7721 63.088C100.268 63.088 100.692 63.224 101.044 63.496C101.412 63.768 101.716 64.12 101.956 64.552C102.212 64.984 102.412 65.48 102.556 66.04C102.716 66.584 102.836 67.144 102.916 67.72C102.996 68.28 103.044 68.832 103.06 69.376C103.092 69.904 103.108 70.36 103.108 70.744C103.108 71.048 103.1 71.352 103.084 71.656C103.084 71.96 103.076 72.272 103.06 72.592C102.916 71.984 102.804 71.352 102.724 70.696C102.66 70.024 102.588 69.368 102.508 68.728C102.428 68.072 102.324 67.448 102.196 66.856C102.084 66.248 101.916 65.688 101.692 65.176L101.86 64.936C101.7 64.568 101.516 64.288 101.308 64.096C101.116 63.888 100.924 63.736 100.732 63.64C100.54 63.544 100.364 63.488 100.204 63.472C100.044 63.456 99.9401 63.448 99.8921 63.448C99.4921 63.448 99.1321 63.592 98.8121 63.88C98.5081 64.168 98.2361 64.56 97.9961 65.056C97.7721 65.536 97.5721 66.096 97.3961 66.736C97.2201 67.376 97.0681 68.048 96.9401 68.752C96.8121 69.456 96.7001 70.168 96.6041 70.888C96.5081 71.592 96.4281 72.256 96.3641 72.88H96.5801C96.6601 72.336 96.7401 71.736 96.8201 71.08C96.9161 70.424 97.0121 69.76 97.1081 69.088C97.2201 68.4 97.3481 67.736 97.4921 67.096C97.6361 66.456 97.8041 65.88 97.9961 65.368C98.2041 64.856 98.4441 64.44 98.7161 64.12C98.9721 63.816 99.2841 63.64 99.6521 63.592C99.3001 63.672 99.0041 63.896 98.7641 64.264C98.5081 64.648 98.2841 65.12 98.0921 65.68C97.9001 66.24 97.7241 66.856 97.5641 67.528C97.4201 68.184 97.2841 68.816 97.1561 69.424L96.6761 72.928C96.6121 73.152 96.5641 73.352 96.5321 73.528L96.4361 74.032C96.4041 74.192 96.3721 74.368 96.3401 74.56C96.3081 74.736 96.2681 74.944 96.2201 75.184L96.1481 75.472H96.0041L93.5801 74.656C93.5001 74.64 93.4361 74.616 93.3881 74.584C93.3561 74.552 93.3161 74.512 93.2681 74.464ZM97.4441 62.152C97.1241 62.424 96.8681 62.72 96.6761 63.04C96.5001 63.344 96.3321 63.656 96.1721 63.976V64C96.3961 63.536 96.7081 63.064 97.1081 62.584C97.4921 62.136 98.0041 61.8 98.6441 61.576C98.4361 61.64 98.2361 61.704 98.0441 61.768C97.8201 61.848 97.6201 61.976 97.4441 62.152ZM100.324 61.36C100.244 61.344 100.132 61.336 99.9881 61.336C100.5 61.464 100.98 61.608 101.428 61.768C101.876 61.912 102.3 62.208 102.7 62.656C102.428 62.288 102.068 62 101.62 61.792C101.188 61.584 100.756 61.44 100.324 61.36ZM100.972 64.096C100.844 64 100.692 63.928 100.516 63.88C100.356 63.816 100.156 63.736 99.9161 63.64L99.8921 63.592C100.164 63.608 100.404 63.672 100.612 63.784C100.82 63.88 101.02 64.056 101.212 64.312L100.972 64.096ZM102.748 62.704C102.972 62.976 103.18 63.288 103.372 63.64C103.564 63.992 103.732 64.304 103.876 64.576C103.716 64.208 103.564 63.872 103.42 63.568C103.276 63.264 103.052 62.976 102.748 62.704ZM120.536 58.48C120.568 58.944 120.592 59.4 120.608 59.848C120.624 60.28 120.632 60.728 120.632 61.192C120.632 62.152 120.6 63.12 120.536 64.096C120.488 65.056 120.424 66.032 120.344 67.024C120.264 68.016 120.184 69.032 120.104 70.072C120.024 71.112 119.952 72.192 119.888 73.312C119.888 73.488 119.88 73.672 119.864 73.864C119.864 74.04 119.848 74.24 119.816 74.464V74.752C119.816 74.8 119.8 74.864 119.768 74.944C119.736 75.024 119.704 75.08 119.672 75.112C119.464 75.352 119.272 75.536 119.096 75.664C118.936 75.776 118.784 75.864 118.64 75.928C118.496 75.976 118.36 76 118.232 76C118.104 76.016 117.976 76.032 117.848 76.048H117.992C118.04 76.048 118.128 76.04 118.256 76.024C118.4 76.008 118.552 75.984 118.712 75.952C118.888 75.904 119.048 75.848 119.192 75.784C119.352 75.704 119.464 75.6 119.528 75.472L119.744 75.04C119.84 74.864 119.896 74.68 119.912 74.488C119.944 74.28 119.96 74.08 119.96 73.888C119.976 73.68 119.984 73.48 119.984 73.288C119.984 73.096 120 72.912 120.032 72.736C120.08 71.728 120.144 70.72 120.224 69.712C120.32 68.704 120.408 67.688 120.488 66.664C120.568 65.64 120.64 64.608 120.704 63.568C120.768 62.512 120.8 61.44 120.8 60.352C120.8 60.016 120.792 59.696 120.776 59.392C120.776 59.072 120.768 58.768 120.752 58.48C120.8 58.544 120.848 58.648 120.896 58.792C120.96 58.92 121.008 59.128 121.04 59.416C121.12 59.592 121.168 59.784 121.184 59.992C121.2 60.2 121.224 60.416 121.256 60.64C121.256 61.728 121.216 62.784 121.136 63.808C121.056 64.816 120.976 65.824 120.896 66.832L120.68 66.904L120.464 71.008C120.464 72.16 120.408 73.112 120.296 73.864C120.2 74.6 120.112 75.088 120.032 75.328V75.4C119.792 75.64 119.584 75.824 119.408 75.952C119.248 76.064 119.096 76.152 118.952 76.216C118.808 76.28 118.672 76.312 118.544 76.312C118.432 76.328 118.312 76.336 118.184 76.336H116.648C116.216 76.288 115.752 76.264 115.256 76.264C114.76 76.28 114.24 76.232 113.696 76.12C113.152 76.008 112.592 75.776 112.016 75.424C111.456 75.072 110.888 74.512 110.312 73.744C110.312 73.776 110.304 73.8 110.288 73.816C110.272 73.832 110.256 73.856 110.24 73.888C110.768 74.608 111.4 75.2 112.136 75.664C112.888 76.128 113.696 76.4 114.56 76.48H116.576C116.768 76.512 116.96 76.528 117.152 76.528C117.36 76.544 117.584 76.552 117.824 76.552C118.064 76.552 118.376 76.52 118.76 76.456C119.16 76.392 119.536 76.184 119.888 75.832C119.952 75.752 119.992 75.696 120.008 75.664C120.04 75.616 120.072 75.552 120.104 75.472L120.176 75.328C120.256 75.184 120.312 75.04 120.344 74.896C120.392 74.736 120.432 74.584 120.464 74.44C120.464 74.616 120.448 74.768 120.416 74.896C120.4 75.024 120.344 75.216 120.248 75.472L120.176 75.544L119.888 75.976C119.744 76.12 119.584 76.232 119.408 76.312C119.232 76.392 119.064 76.448 118.904 76.48C118.744 76.528 118.592 76.56 118.448 76.576C118.32 76.592 118.224 76.608 118.16 76.624H117.368C117.16 76.624 116.984 76.616 116.84 76.6C116.712 76.6 116.608 76.592 116.528 76.576C116.464 76.576 116.408 76.568 116.36 76.552H115.64C115.496 76.552 115.352 76.552 115.208 76.552C115.064 76.568 114.912 76.576 114.752 76.576C114 76.576 113.264 76.392 112.544 76.024C111.84 75.672 111.184 75.168 110.576 74.512C109.984 73.856 109.456 73.08 108.992 72.184C108.528 71.288 108.176 70.296 107.936 69.208C107.936 69.032 107.92 68.864 107.888 68.704C107.872 68.544 107.864 68.376 107.864 68.2C107.864 67.608 107.952 67.008 108.128 66.4C108.32 65.776 108.656 65.216 109.136 64.72C109.616 64.224 110.264 63.824 111.08 63.52C111.896 63.2 112.928 63.04 114.176 63.04C114.752 63.04 115.312 63.056 115.856 63.088C116.4 63.104 116.952 63.128 117.512 63.16C117.448 63.208 117.416 63.264 117.416 63.328C117.416 63.408 117.432 63.48 117.464 63.544C117.496 63.592 117.512 63.648 117.512 63.712C117.512 63.792 117.448 63.864 117.32 63.928C117.208 63.976 116.96 64 116.576 64C116.448 64 116.296 64 116.12 64C115.96 63.984 115.776 63.968 115.568 63.952V64.168C116.336 64.28 116.952 64.432 117.416 64.624C117.896 64.8 118.192 64.96 118.304 65.104L118.352 65.152L118.448 64.096C118.496 63.664 118.52 63.176 118.52 62.632C118.52 62.072 118.504 61.52 118.472 60.976C118.44 60.432 118.424 60.008 118.424 59.704C118.424 59.32 118.448 59.064 118.496 58.936C118.544 58.808 118.608 58.744 118.688 58.744C118.752 58.744 118.8 58.88 118.832 59.152C118.88 59.424 118.912 59.736 118.928 60.088C118.96 60.424 118.976 60.76 118.976 61.096V61.792C118.976 62.256 118.968 62.728 118.952 63.208C118.936 63.672 118.912 64.136 118.88 64.6C118.928 63.992 118.968 63.4 119 62.824C119.032 62.232 119.048 61.632 119.048 61.024C119.048 60.656 119.04 60.296 119.024 59.944C119.008 59.576 118.984 59.208 118.952 58.84C119.048 58.936 119.12 58.984 119.168 58.984C119.232 58.984 119.28 58.936 119.312 58.84C119.296 58.712 119.28 58.576 119.264 58.432C119.248 58.304 119.24 58.176 119.24 58.048V57.688C119.32 57.496 119.424 57.352 119.552 57.256C119.68 57.144 119.792 57.088 119.888 57.088C120.16 57.088 120.4 57.384 120.608 57.976L120.536 58.48ZM116.648 65.68C116.12 65.712 115.52 65.744 114.848 65.776C114.192 65.808 113.568 65.896 112.976 66.04C112.384 66.168 111.872 66.368 111.44 66.64C111.024 66.912 110.792 67.288 110.744 67.768C110.744 68.296 110.856 68.888 111.08 69.544C111.304 70.2 111.6 70.824 111.968 71.416C112.336 71.992 112.752 72.488 113.216 72.904C113.696 73.32 114.192 73.552 114.704 73.6H116.072C116.152 73.6 116.208 73.608 116.24 73.624C116.288 73.624 116.352 73.64 116.432 73.672H117.008C117.248 73.72 117.488 73.744 117.728 73.744C117.728 72.4 117.784 71.024 117.896 69.616C118.024 68.192 118.16 66.8 118.304 65.44C118.096 65.6 117.544 65.68 116.648 65.68ZM118.376 70.648C118.376 70.824 118.36 71.008 118.328 71.2C118.312 71.376 118.304 71.576 118.304 71.8C118.48 70.904 118.584 69.96 118.616 68.968C118.648 67.976 118.688 67.024 118.736 66.112C118.656 66.88 118.592 67.64 118.544 68.392C118.512 69.128 118.456 69.88 118.376 70.648ZM120.464 73.24C120.464 73.064 120.472 72.888 120.488 72.712C120.504 72.52 120.528 72.32 120.56 72.112C120.544 72.592 120.536 73.048 120.536 73.48C120.536 73.896 120.512 74.192 120.464 74.368C120.464 74.288 120.464 74.216 120.464 74.152C120.48 74.072 120.488 73.992 120.488 73.912C120.488 73.784 120.48 73.664 120.464 73.552C120.464 73.44 120.464 73.336 120.464 73.24ZM120.824 69.352C120.792 69.432 120.768 69.528 120.752 69.64C120.736 69.736 120.712 69.84 120.68 69.952L120.776 68.488L120.824 69.352ZM120.608 71.224C120.608 71.368 120.6 71.512 120.584 71.656C120.584 71.8 120.576 71.936 120.56 72.064C120.56 71.744 120.568 71.424 120.584 71.104C120.6 70.768 120.624 70.464 120.656 70.192L120.608 71.224ZM118.232 72.712C118.248 72.648 118.256 72.584 118.256 72.52C118.256 72.456 118.272 72.384 118.304 72.304V72.04C118.288 72.072 118.28 72.104 118.28 72.136C118.28 72.152 118.272 72.168 118.256 72.184L118.232 72.232V72.712ZM118.16 73.864C118.176 73.72 118.192 73.576 118.208 73.432C118.224 73.272 118.232 73.112 118.232 72.952V72.88L118.136 73.816L118.16 73.864Z" fill="#EAEAEA"/>
<path d="M71.688 96.848C71.688 96.32 71.648 95.784 71.568 95.24C71.504 94.696 71.472 94.168 71.472 93.656V93.008C71.392 92.384 71.296 91.656 71.184 90.824C71.072 89.976 70.928 89.176 70.752 88.424C70.576 87.672 70.36 87.032 70.104 86.504C69.848 85.976 69.528 85.712 69.144 85.712C68.584 85.712 68.008 85.976 67.416 86.504C66.824 87.016 66.328 87.768 65.928 88.76C65.736 89.32 65.6 89.912 65.52 90.536C65.456 91.16 65.4 91.816 65.352 92.504C65.304 93.192 65.256 93.904 65.208 94.64C65.176 95.36 65.104 96.112 64.992 96.896C64.96 96.976 64.928 97.072 64.896 97.184C64.88 97.296 64.864 97.392 64.848 97.472H61.896V95.528C61.88 95.368 61.864 95.176 61.848 94.952C61.832 94.728 61.808 94.504 61.776 94.28C61.76 94.04 61.744 93.808 61.728 93.584C61.712 93.36 61.696 93.168 61.68 93.008C61.68 91.712 61.624 90.416 61.512 89.12C61.416 87.824 61.352 86.504 61.32 85.16L61.872 85.04C61.92 85.04 61.968 85.088 62.016 85.184C62.08 85.264 62.128 85.424 62.16 85.664C62.208 85.904 62.248 86.248 62.28 86.696C62.328 87.128 62.368 87.696 62.4 88.4C62.416 88.4 62.44 88.392 62.472 88.376C62.536 88.344 62.584 88.328 62.616 88.328C62.616 88.216 62.608 88.104 62.592 87.992C62.592 87.88 62.592 87.768 62.592 87.656C62.592 86.28 62.68 85.224 62.856 84.488C63.048 83.736 63.208 83.36 63.336 83.36C63.432 83.36 63.528 83.568 63.624 83.984C63.72 84.4 63.824 85.056 63.936 85.952C64.208 85.52 64.52 85.104 64.872 84.704C65.224 84.304 65.616 83.96 66.048 83.672C66.496 83.368 66.976 83.128 67.488 82.952C68 82.776 68.56 82.688 69.168 82.688C69.696 82.688 70.16 82.8 70.56 83.024C70.96 83.248 71.312 83.544 71.616 83.912C71.936 84.264 72.2 84.672 72.408 85.136C72.632 85.584 72.824 86.04 72.984 86.504C73.144 86.952 73.272 87.392 73.368 87.824C73.48 88.24 73.576 88.592 73.656 88.88C73.656 88.912 73.664 88.952 73.68 89C73.696 89.032 73.712 89.064 73.728 89.096C73.92 88.584 74.16 88 74.448 87.344C74.736 86.672 75.096 86.04 75.528 85.448C75.96 84.856 76.464 84.36 77.04 83.96C77.632 83.544 78.312 83.336 79.08 83.336C79.832 83.336 80.472 83.536 81 83.936C81.528 84.336 81.968 84.848 82.32 85.472C82.688 86.096 82.976 86.792 83.184 87.56C83.408 88.312 83.576 89.056 83.688 89.792C83.8 90.512 83.872 91.176 83.904 91.784C83.936 92.392 83.952 92.856 83.952 93.176C83.952 93.688 83.928 94.064 83.88 94.304C83.848 94.544 83.744 94.664 83.568 94.664C83.536 94.024 83.504 93.376 83.472 92.72C83.456 92.064 83.408 91.408 83.328 90.752C83.264 90.08 83.168 89.424 83.04 88.784C82.912 88.16 82.744 87.544 82.536 86.936C82.936 88.2 83.168 89.464 83.232 90.728C83.312 92.008 83.376 93.272 83.424 94.52C83.312 94.408 83.224 94.352 83.16 94.352C83.112 94.352 83.08 94.384 83.064 94.448V95.168C83.064 95.376 83.064 95.592 83.064 95.816C83.08 96.04 83.104 96.232 83.136 96.392C83.104 97.048 83.072 97.52 83.04 97.808C83.024 98.08 82.968 98.256 82.872 98.336C82.744 98.336 82.632 98.264 82.536 98.12C82.44 97.976 82.344 97.792 82.248 97.568C82.168 97.344 82.088 97.096 82.008 96.824C81.928 96.552 81.848 96.288 81.768 96.032V95.384C81.768 94.68 81.76 93.944 81.744 93.176C81.744 92.408 81.712 91.664 81.648 90.944C81.6 90.208 81.512 89.512 81.384 88.856C81.272 88.2 81.112 87.624 80.904 87.128C80.712 86.616 80.456 86.216 80.136 85.928C79.832 85.64 79.456 85.496 79.008 85.496C78.64 85.496 78.304 85.592 78 85.784C77.824 85.896 77.648 86.04 77.472 86.216C77.648 86.056 77.832 85.92 78.024 85.808C78.328 85.616 78.656 85.52 79.008 85.52H79.104C79.504 85.52 79.84 85.68 80.112 86C80.4 86.304 80.632 86.712 80.808 87.224C81 87.736 81.144 88.32 81.24 88.976C81.336 89.632 81.408 90.312 81.456 91.016C81.52 91.72 81.56 92.424 81.576 93.128C81.592 93.816 81.608 94.448 81.624 95.024C81.528 94.576 81.44 94.048 81.36 93.44C81.296 92.816 81.224 92.168 81.144 91.496C81.08 90.824 80.992 90.16 80.88 89.504C80.784 88.848 80.656 88.264 80.496 87.752C80.336 87.224 80.136 86.8 79.896 86.48C79.656 86.16 79.36 86 79.008 86C78.864 86 78.736 86.016 78.624 86.048C78.512 86.064 78.368 86.144 78.192 86.288L77.952 86.168C77.408 86.648 76.952 87.288 76.584 88.088C76.216 88.888 75.904 89.752 75.648 90.68C75.392 91.592 75.176 92.528 75 93.488C74.824 94.448 74.656 95.336 74.496 96.152V97.064C74.752 95.8 74.984 94.56 75.192 93.344C75.416 92.112 75.736 90.92 76.152 89.768C75.832 90.76 75.584 91.784 75.408 92.84C75.232 93.896 75.032 94.976 74.808 96.08C74.808 96.192 74.784 96.344 74.736 96.536C74.688 96.728 74.608 97.016 74.496 97.4L71.856 97.136L71.688 96.848ZM71.952 95.648C71.904 95.216 71.856 94.664 71.808 93.992C71.776 93.32 71.728 92.608 71.664 91.856C71.6 91.104 71.512 90.344 71.4 89.576C71.288 88.808 71.128 88.12 70.92 87.512C70.728 86.888 70.48 86.384 70.176 86C69.888 85.616 69.52 85.424 69.072 85.424C68.928 85.424 68.776 85.456 68.616 85.52C68.456 85.584 68.304 85.656 68.16 85.736C68.208 85.72 68.248 85.712 68.28 85.712H68.304C68.304 85.728 68.28 85.76 68.232 85.808C68.664 85.664 69 85.592 69.24 85.592C69.544 85.704 69.816 85.952 70.056 86.336C70.296 86.72 70.496 87.184 70.656 87.728C70.832 88.256 70.976 88.832 71.088 89.456C71.216 90.08 71.312 90.68 71.376 91.256C71.44 91.816 71.488 92.32 71.52 92.768C71.552 93.216 71.568 93.536 71.568 93.728C71.616 94.208 71.656 94.68 71.688 95.144C71.736 95.608 71.76 96.072 71.76 96.536L71.952 95.648ZM73.968 89.192C73.968 89.208 73.984 89.28 74.016 89.408C74.048 89.52 74.072 89.592 74.088 89.624C74.136 89.464 74.24 89.208 74.4 88.856C74.56 88.488 74.736 88.104 74.928 87.704C75.12 87.288 75.304 86.904 75.48 86.552C75.544 86.408 75.6 86.28 75.648 86.168C75.6 86.264 75.536 86.368 75.456 86.48C75.28 86.8 75.088 87.136 74.88 87.488C74.672 87.824 74.48 88.152 74.304 88.472C74.128 88.792 74.016 89.032 73.968 89.192ZM75.864 88.904C75.544 89.72 75.264 90.584 75.024 91.496C74.784 92.392 74.568 93.32 74.376 94.28L74.424 94.664C74.632 93.512 74.872 92.352 75.144 91.184C75.4 90.16 75.728 89.192 76.128 88.28C76.112 88.328 76.096 88.368 76.08 88.4C76 88.56 75.928 88.728 75.864 88.904ZM71.952 92.168C71.984 92.424 72 92.672 72 92.912C72.016 93.152 72.032 93.376 72.048 93.584L72.12 94.736L72.144 94.616C72.128 94.392 72.12 94.176 72.12 93.968V93.368L71.952 92.168ZM79.824 83.936C79.536 83.856 79.264 83.816 79.008 83.816H78.744C78.632 83.816 78.576 83.824 78.576 83.84H78.6C78.856 83.904 79.096 83.936 79.32 83.936H79.824ZM76.272 89.432C76.352 89.208 76.424 88.992 76.488 88.784C76.568 88.576 76.632 88.432 76.68 88.352C76.68 88.384 76.664 88.448 76.632 88.544C76.6 88.656 76.536 88.824 76.44 89.048L76.272 89.432ZM81.48 84.944C81.4 84.848 81.296 84.752 81.168 84.656C81.072 84.592 80.984 84.536 80.904 84.488C81.096 84.616 81.288 84.768 81.48 84.944ZM75.768 85.952C75.736 85.984 75.712 86.032 75.696 86.096C75.728 86.048 75.752 86 75.768 85.952ZM94.7724 91.712C94.3404 91.712 94.0124 91.704 93.7884 91.688C93.5804 91.672 93.3884 91.664 93.2124 91.664C92.7324 91.664 92.3084 91.688 91.9404 91.736C91.5724 91.784 91.2604 91.88 91.0044 92.024C90.7484 92.168 90.5564 92.376 90.4284 92.648C90.3004 92.92 90.2364 93.28 90.2364 93.728C90.2364 94.384 90.3084 94.872 90.4524 95.192C90.6124 95.496 90.8284 95.72 91.1004 95.864C91.3884 95.992 91.7324 96.072 92.1324 96.104C92.5324 96.136 92.9804 96.208 93.4764 96.32C93.7644 96.352 94.0524 96.376 94.3404 96.392C94.6284 96.392 94.9164 96.392 95.2044 96.392H96.9324C96.1324 96.344 95.3324 96.32 94.5324 96.32C93.7484 96.304 93.0364 96.232 92.3964 96.104C91.7724 95.976 91.2604 95.752 90.8604 95.432C90.4764 95.112 90.2844 94.624 90.2844 93.968C90.2844 93.44 90.3484 93.04 90.4764 92.768C90.6204 92.48 90.8044 92.272 91.0284 92.144C91.2684 92 91.5484 91.92 91.8684 91.904C92.1884 91.872 92.5324 91.856 92.9004 91.856C93.3484 91.856 93.8044 91.88 94.2684 91.928C93.9004 92.04 93.5244 92.128 93.1404 92.192C92.7724 92.24 92.4284 92.296 92.1084 92.36C91.7884 92.408 91.5084 92.48 91.2684 92.576C91.0444 92.656 90.8924 92.776 90.8124 92.936V94.016L90.6204 94.112C90.6844 94.512 90.7404 94.816 90.7884 95.024C90.8524 95.216 91.0124 95.368 91.2684 95.48C91.5244 95.576 91.9324 95.656 92.4924 95.72C93.0684 95.784 93.9004 95.888 94.9884 96.032H96.7164C97.0204 96.032 97.1964 96.024 97.2444 96.008C97.3084 95.976 97.3484 95.96 97.3644 95.96L97.1484 94.664C97.1164 94.344 97.0764 94.056 97.0284 93.8C96.9804 93.544 96.9164 93.272 96.8364 92.984C96.8204 93.032 96.7724 93.056 96.6924 93.056C96.7724 93.328 96.8364 93.616 96.8844 93.92C96.9484 94.224 96.9964 94.512 97.0284 94.784C97.0764 95.056 97.1084 95.288 97.1244 95.48C97.1564 95.672 97.1884 95.784 97.2204 95.816L97.0764 95.864C97.0444 95.88 96.9964 95.888 96.9324 95.888H96.7884C96.6764 95.888 96.5484 95.88 96.4044 95.864C96.2604 95.832 96.0764 95.816 95.8524 95.816H95.0604C94.4364 95.816 93.8604 95.784 93.3324 95.72C92.8364 95.656 92.4044 95.576 92.0364 95.48C92.4044 95.56 92.8524 95.624 93.3804 95.672C93.9404 95.736 94.4604 95.768 94.9404 95.768C95.1484 95.768 95.3644 95.768 95.5884 95.768C95.8284 95.752 96.0844 95.744 96.3564 95.744H97.1484C97.1004 95.696 97.0444 95.672 96.9804 95.672H96.9324C96.8684 94.568 96.7244 93.512 96.5004 92.504C96.2764 91.496 95.9164 90.616 95.4204 89.864C94.9244 89.096 94.2764 88.488 93.4764 88.04C92.6764 87.576 91.6764 87.344 90.4764 87.344C90.1404 87.344 89.8044 87.368 89.4684 87.416C89.1324 87.464 88.7884 87.528 88.4364 87.608C88.4684 87.576 88.4844 87.544 88.4844 87.512C88.4844 87.432 88.4524 87.36 88.3884 87.296C88.3244 87.216 88.2924 87.136 88.2924 87.056C88.2924 86.96 88.3884 86.872 88.5804 86.792C88.7884 86.696 89.2204 86.608 89.8764 86.528C89.8444 86.496 89.8204 86.448 89.8044 86.384C89.8044 86.32 89.8044 86.272 89.8044 86.24C88.9404 86.24 88.2684 86.224 87.7884 86.192C87.3084 86.144 87.0684 86.024 87.0684 85.832C87.0684 85.752 87.1644 85.64 87.3564 85.496C87.5644 85.352 87.8524 85.216 88.2204 85.088C88.5884 84.944 89.0284 84.824 89.5404 84.728C90.0684 84.616 90.6524 84.56 91.2924 84.56C92.5244 84.56 93.5804 84.752 94.4604 85.136C95.3404 85.504 96.0764 86 96.6684 86.624C97.2764 87.232 97.7644 87.928 98.1324 88.712C98.5164 89.496 98.8204 90.288 99.0444 91.088C99.2844 91.872 99.4604 92.64 99.5724 93.392C99.6844 94.128 99.7884 94.768 99.8844 95.312C99.8844 95.408 99.8844 95.504 99.8844 95.6C99.9004 95.696 99.9084 95.808 99.9084 95.936C99.9084 96.4 99.8204 96.808 99.6444 97.16C99.4844 97.496 99.2524 97.776 98.9484 98C98.6604 98.24 98.3164 98.416 97.9164 98.528C97.5324 98.656 97.1164 98.72 96.6684 98.72C96.3164 98.72 95.8604 98.712 95.3004 98.696C94.7404 98.68 94.2044 98.632 93.6924 98.552C93.3564 98.472 92.9884 98.408 92.5884 98.36C92.1884 98.328 91.7804 98.264 91.3644 98.168C90.9484 98.072 90.5404 97.936 90.1404 97.76C89.7564 97.584 89.4044 97.32 89.0844 96.968C88.7804 96.6 88.5324 96.128 88.3404 95.552C88.1644 94.976 88.0764 94.248 88.0764 93.368C88.0764 92.536 88.2684 91.872 88.6524 91.376C89.0364 90.864 89.4924 90.472 90.0204 90.2C90.5644 89.912 91.1164 89.728 91.6764 89.648C92.2364 89.552 92.6924 89.504 93.0444 89.504C93.4924 89.504 93.7884 89.536 93.9324 89.6C94.0764 89.664 94.1484 89.728 94.1484 89.792C94.1484 89.84 94.1404 89.88 94.1244 89.912C93.7244 89.912 93.2124 89.928 92.5884 89.96C91.9644 89.992 91.3564 90.096 90.7644 90.272C90.1884 90.448 89.6924 90.72 89.2764 91.088C88.8604 91.44 88.6524 91.944 88.6524 92.6C88.7964 92.008 89.0364 91.544 89.3724 91.208C89.7244 90.856 90.1244 90.6 90.5724 90.44C91.0204 90.264 91.4764 90.16 91.9404 90.128C92.4204 90.08 92.8524 90.056 93.2364 90.056H94.0524C93.9884 90.12 93.9564 90.184 93.9564 90.248C93.9564 90.312 93.9884 90.368 94.0524 90.416H94.9884C95.2444 90.464 95.4284 90.552 95.5404 90.68C95.6524 90.792 95.7084 90.896 95.7084 90.992C95.7084 91.136 95.6364 91.264 95.4924 91.376C95.3484 91.488 95.1084 91.6 94.7724 91.712ZM90.7404 97.52C91.1884 97.696 91.6444 97.832 92.1084 97.928C92.5884 98.024 93.0604 98.088 93.5244 98.12C93.9884 98.168 94.4204 98.192 94.8204 98.192C94.5004 98.16 94.1804 98.104 93.8604 98.024C93.5244 97.944 93.2284 97.872 92.9724 97.808C92.7004 97.744 92.4284 97.704 92.1564 97.688C91.9004 97.656 91.6284 97.616 91.3404 97.568C91.0684 97.52 90.7884 97.448 90.5004 97.352C90.2124 97.24 89.9244 97.08 89.6364 96.872C89.9404 97.144 90.3084 97.36 90.7404 97.52ZM90.9804 95C90.9644 94.984 91.0124 95.032 91.1244 95.144C91.2204 95.24 91.3484 95.312 91.5084 95.36C91.4284 95.328 91.3084 95.288 91.1484 95.24C90.9724 95.176 90.8844 95.08 90.8844 94.952L90.9804 95ZM91.5804 95.36C91.5644 95.36 91.5404 95.36 91.5084 95.36C91.5244 95.36 91.5484 95.36 91.5804 95.36ZM111.589 86C111.445 86 111.245 86.024 110.989 86.072C110.749 86.12 110.501 86.176 110.245 86.24C110.005 86.304 109.781 86.368 109.573 86.432C109.381 86.496 109.261 86.544 109.213 86.576C109.629 86.512 110.013 86.44 110.365 86.36C110.717 86.264 111.101 86.216 111.517 86.216C111.437 86.36 111.333 86.472 111.205 86.552C111.077 86.632 110.933 86.696 110.773 86.744C110.629 86.776 110.469 86.808 110.293 86.84C110.117 86.856 109.933 86.888 109.741 86.936L109.573 86.72C109.269 86.832 109.037 86.904 108.877 86.936C108.717 86.952 108.549 86.96 108.373 86.96C108.181 86.96 107.981 86.96 107.773 86.96C107.581 86.944 107.365 86.936 107.125 86.936C107.125 87.016 107.117 87.08 107.101 87.128C107.469 87.128 107.781 87.128 108.037 87.128C108.293 87.112 108.605 87.08 108.973 87.032C108.621 87.096 108.309 87.144 108.037 87.176C107.781 87.208 107.469 87.224 107.101 87.224C107.037 87.592 106.981 87.952 106.933 88.304C106.885 88.656 106.861 89 106.861 89.336C106.861 89.528 106.869 89.752 106.885 90.008C106.901 90.264 106.917 90.528 106.933 90.8C106.965 91.056 106.989 91.304 107.005 91.544C107.021 91.768 107.029 91.936 107.029 92.048V93.488C107.109 93.808 107.341 94.048 107.725 94.208C108.109 94.368 108.661 94.448 109.381 94.448H110.149C110.421 94.448 110.605 94.48 110.701 94.544C110.813 94.592 110.869 94.664 110.869 94.76C110.869 94.84 110.805 94.888 110.677 94.904C110.549 94.904 110.421 94.904 110.293 94.904C109.829 94.904 109.341 94.872 108.829 94.808C108.349 94.744 107.877 94.672 107.413 94.592C107.877 94.704 108.365 94.808 108.877 94.904C109.405 94.984 109.917 95.024 110.413 95.024H110.629C110.693 95.024 110.765 95.016 110.845 95C110.845 95.08 110.845 95.152 110.845 95.216C110.861 95.28 110.885 95.352 110.917 95.432L111.109 95.384C111.157 95.368 111.213 95.36 111.277 95.36C111.341 95.344 111.389 95.32 111.421 95.288C111.933 95.336 112.189 95.512 112.189 95.816C112.189 95.992 112.141 96.136 112.045 96.248C111.949 96.36 111.829 96.448 111.685 96.512C111.541 96.576 111.381 96.624 111.205 96.656C111.029 96.672 110.861 96.68 110.701 96.68C110.141 96.68 109.589 96.648 109.045 96.584C108.517 96.504 107.997 96.424 107.485 96.344C107.933 96.504 108.501 96.632 109.189 96.728C109.877 96.824 110.573 96.872 111.277 96.872C111.101 96.984 110.893 97.072 110.653 97.136C110.413 97.2 110.165 97.232 109.909 97.232L108.181 97.016C107.957 96.984 107.781 96.952 107.653 96.92C107.541 96.888 107.429 96.856 107.317 96.824C107.205 96.776 107.077 96.728 106.933 96.68C106.805 96.632 106.621 96.576 106.381 96.512V96.248C105.965 96.136 105.629 95.944 105.373 95.672C105.117 95.4 104.917 95.104 104.773 94.784C104.629 94.464 104.533 94.144 104.485 93.824C104.437 93.488 104.413 93.192 104.413 92.936C104.413 92.664 104.413 92.416 104.413 92.192C104.429 91.952 104.437 91.712 104.437 91.472C104.437 91.296 104.429 91.072 104.413 90.8C104.413 90.528 104.405 90.24 104.389 89.936C104.373 89.632 104.357 89.32 104.341 89C104.341 88.68 104.341 88.376 104.341 88.088C104.341 87.912 104.341 87.744 104.341 87.584C104.357 87.424 104.373 87.28 104.389 87.152H104.149C104.133 87.264 104.125 87.392 104.125 87.536V87.968C104.125 88.432 104.133 88.896 104.149 89.36C104.165 89.808 104.173 90.224 104.173 90.608C104.189 90.992 104.205 91.328 104.221 91.616C104.237 91.888 104.245 92.088 104.245 92.216V93.176V93.368C104.197 92.936 104.149 92.32 104.101 91.52C104.053 90.592 104.029 89.568 104.029 88.448V88.016C104.029 87.84 104.029 87.672 104.029 87.512C104.045 87.352 104.069 87.232 104.101 87.152L103.285 87.104C103.109 86.992 102.933 86.904 102.757 86.84C102.581 86.776 102.421 86.744 102.277 86.744V86.264C102.277 86.168 102.285 86.088 102.301 86.024C102.333 85.944 102.413 85.904 102.541 85.904C102.573 85.904 102.653 85.92 102.781 85.952V85.664C102.605 85.568 102.461 85.44 102.349 85.28C102.237 85.104 102.181 84.928 102.181 84.752C102.181 84.336 102.477 84.128 103.069 84.128C103.293 84.128 103.525 84.144 103.765 84.176C104.005 84.208 104.253 84.232 104.509 84.248C104.573 83.896 104.629 83.584 104.677 83.312C104.725 83.024 104.773 82.752 104.821 82.496C104.869 82.224 104.925 81.96 104.989 81.704C105.053 81.432 105.133 81.152 105.229 80.864C105.373 80.544 105.485 80.2 105.565 79.832C105.645 79.448 105.701 79.072 105.733 78.704L106.237 78.728C106.317 78.728 106.381 78.752 106.429 78.8C106.493 78.848 106.525 78.96 106.525 79.136C106.525 79.28 106.501 79.472 106.453 79.712L106.741 79.784C106.869 79.352 107.021 79 107.197 78.728C107.389 78.456 107.573 78.32 107.749 78.32C108.021 78.32 108.189 78.664 108.253 79.352V79.784C108.253 80.2 108.221 80.592 108.157 80.96C108.109 81.312 108.045 81.664 107.965 82.016C107.885 82.368 107.805 82.728 107.725 83.096C107.645 83.464 107.573 83.864 107.509 84.296C107.861 84.344 108.205 84.368 108.541 84.368C108.701 84.368 108.861 84.368 109.021 84.368C109.181 84.352 109.341 84.344 109.501 84.344C109.661 84.344 109.829 84.28 110.005 84.152C110.181 84.024 110.341 83.96 110.485 83.96C110.613 83.96 110.709 84 110.773 84.08C110.837 84.16 110.869 84.248 110.869 84.344C110.581 84.424 110.293 84.512 110.005 84.608C109.733 84.688 109.469 84.768 109.213 84.848C109.469 84.816 109.741 84.76 110.029 84.68C110.317 84.584 110.621 84.496 110.941 84.416C110.941 84.496 110.941 84.568 110.941 84.632C110.957 84.696 110.981 84.768 111.013 84.848C111.045 84.848 111.085 84.84 111.133 84.824C111.229 84.792 111.285 84.776 111.301 84.776C111.461 84.856 111.565 84.96 111.613 85.088C111.661 85.2 111.685 85.328 111.685 85.472C111.685 85.584 111.669 85.688 111.637 85.784C111.605 85.864 111.589 85.936 111.589 86ZM105.229 94.856C105.005 94.424 104.885 94 104.869 93.584C104.853 93.168 104.829 92.776 104.797 92.408L104.581 88.76L104.509 89.192C104.509 90.264 104.541 91.24 104.605 92.12C104.685 92.984 104.797 93.656 104.941 94.136C104.941 94.28 104.933 94.376 104.917 94.424C104.917 94.472 104.917 94.512 104.917 94.544C104.917 94.576 104.933 94.616 104.965 94.664C105.013 94.712 105.101 94.776 105.229 94.856ZM106.597 93.56C106.565 93.432 106.549 93.296 106.549 93.152V91.976C106.533 92.136 106.517 92.296 106.501 92.456C106.485 92.6 106.477 92.752 106.477 92.912C106.477 93.328 106.501 93.648 106.549 93.872C106.597 94.064 106.693 94.224 106.837 94.352C106.757 94.256 106.701 94.152 106.669 94.04C106.653 93.912 106.629 93.752 106.597 93.56ZM104.269 93.536L104.245 93.368L104.269 93.536ZM106.885 94.376C106.869 94.36 106.853 94.352 106.837 94.352C106.853 94.352 106.869 94.36 106.885 94.376ZM122.717 98.432C122.109 98.64 121.645 98.752 121.325 98.768C121.005 98.8 120.725 98.824 120.485 98.84C119.589 98.84 118.781 98.672 118.061 98.336C117.341 98 116.725 97.544 116.213 96.968C115.701 96.392 115.301 95.72 115.013 94.952C114.741 94.168 114.605 93.336 114.605 92.456C114.605 91.944 114.653 91.416 114.749 90.872C114.845 90.312 114.989 89.768 115.181 89.24C115.373 88.696 115.621 88.192 115.925 87.728C116.213 87.264 116.557 86.848 116.957 86.48C116.541 86.816 116.189 87.216 115.901 87.68C115.597 88.144 115.341 88.648 115.133 89.192C114.925 89.72 114.773 90.272 114.677 90.848C114.581 91.408 114.533 91.952 114.533 92.48C114.533 93.152 114.637 93.872 114.845 94.64C115.069 95.392 115.421 96.096 115.901 96.752C116.381 97.392 116.997 97.928 117.749 98.36C118.517 98.792 119.445 99.008 120.533 99.008C121.045 99.008 121.581 98.936 122.141 98.792C121.533 99.192 120.853 99.392 120.101 99.392C119.493 99.392 118.917 99.296 118.373 99.104C117.845 98.928 117.349 98.672 116.885 98.336C116.437 98.016 116.029 97.632 115.661 97.184C115.293 96.736 114.981 96.256 114.725 95.744L114.941 95.552C114.669 95.008 114.469 94.464 114.341 93.92C114.229 93.376 114.173 92.824 114.173 92.264C114.173 91.448 114.285 90.664 114.509 89.912C114.749 89.16 115.061 88.448 115.445 87.776L116.021 86.984C116.117 86.808 116.253 86.632 116.429 86.456C116.621 86.28 116.829 86.112 117.053 85.952C117.277 85.776 117.509 85.624 117.749 85.496C118.005 85.352 118.245 85.224 118.469 85.112C119.045 84.824 119.621 84.568 120.197 84.344C120.773 84.104 121.445 83.928 122.213 83.816L122.117 83.744C120.645 83.888 119.397 84.248 118.373 84.824C117.349 85.384 116.517 86.072 115.877 86.888C115.237 87.704 114.773 88.6 114.485 89.576C114.197 90.536 114.053 91.48 114.053 92.408C114.053 92.904 114.093 93.408 114.173 93.92C114.269 94.416 114.405 94.912 114.581 95.408C114.181 94.448 113.981 93.432 113.981 92.36C113.981 91.304 114.157 90.256 114.509 89.216C114.861 88.176 115.413 87.216 116.165 86.336C117.125 85.456 118.173 84.784 119.309 84.32C120.445 83.84 121.541 83.6 122.597 83.6C122.933 83.6 123.277 83.656 123.629 83.768C123.981 83.88 124.301 84.056 124.589 84.296C124.877 84.52 125.109 84.816 125.285 85.184C125.477 85.552 125.573 86 125.573 86.528C125.573 86.96 125.469 87.488 125.261 88.112C125.053 88.736 124.741 89.344 124.325 89.936C123.925 90.512 123.421 91.008 122.813 91.424C122.205 91.824 121.501 92.024 120.701 92.024H119.909C119.317 91.896 118.773 91.752 118.277 91.592C117.797 91.416 117.341 91.28 116.909 91.184C116.845 91.44 116.805 91.688 116.789 91.928C116.789 92.152 116.789 92.376 116.789 92.6C116.789 93.064 116.837 93.52 116.933 93.968C117.045 94.4 117.213 94.8 117.437 95.168C117.661 95.536 117.941 95.848 118.277 96.104C118.629 96.344 119.053 96.496 119.549 96.56C119.853 96.624 120.117 96.664 120.341 96.68C120.565 96.68 120.749 96.688 120.893 96.704C121.053 96.704 121.165 96.728 121.229 96.776C121.309 96.808 121.349 96.88 121.349 96.992C121.189 97.04 121.021 97.072 120.845 97.088C120.685 97.104 120.517 97.112 120.341 97.112C119.781 97.112 119.277 97.024 118.829 96.848C118.381 96.656 117.997 96.44 117.677 96.2C118.045 96.568 118.485 96.832 118.997 96.992C119.509 97.136 120.013 97.208 120.509 97.208C120.781 97.208 121.061 97.184 121.349 97.136C121.317 97.232 121.301 97.288 121.301 97.304C121.301 97.4 121.341 97.464 121.421 97.496C121.485 97.48 121.597 97.44 121.757 97.376C121.917 97.296 122.077 97.224 122.237 97.16C122.413 97.08 122.581 97.016 122.741 96.968C122.901 96.904 123.013 96.872 123.077 96.872C123.157 96.872 123.229 96.888 123.293 96.92C123.357 96.936 123.389 97.024 123.389 97.184C123.389 97.344 123.333 97.536 123.221 97.76C123.109 97.984 122.941 98.208 122.717 98.432ZM119.405 88.928L119.933 89.024C120.109 89.056 120.269 89.072 120.413 89.072C120.573 89.072 120.757 89.024 120.965 88.928C121.189 88.816 121.405 88.664 121.613 88.472C121.837 88.28 122.029 88.04 122.189 87.752C122.365 87.464 122.493 87.136 122.573 86.768L122.621 86.624C122.397 86.624 122.061 86.68 121.613 86.792C121.165 86.904 120.701 87.056 120.221 87.248C119.741 87.424 119.293 87.64 118.877 87.896C118.461 88.136 118.173 88.4 118.013 88.688C118.253 88.736 118.485 88.784 118.709 88.832C118.949 88.864 119.181 88.896 119.405 88.928ZM118.301 90.704C118.333 90.672 118.349 90.624 118.349 90.56C118.365 90.496 118.373 90.448 118.373 90.416L117.245 90.008L117.125 90.344L118.301 90.704ZM117.629 96.152C117.517 96.024 117.405 95.896 117.293 95.768C117.197 95.656 117.117 95.544 117.053 95.432C117.197 95.704 117.389 95.944 117.629 96.152Z" fill="#EAEAEA"/>
<path d="M68.064 106.592C67.344 106.72 66.648 106.856 65.976 107C65.304 107.128 64.584 107.248 63.816 107.36V107.384C64.504 107.336 65.192 107.24 65.88 107.096C66.568 106.936 67.272 106.84 67.992 106.808C67.912 107 67.704 107.168 67.368 107.312C67.048 107.44 66.76 107.504 66.504 107.504C66.248 107.504 66.12 107.44 66.12 107.312C65.736 107.472 65.352 107.568 64.968 107.6L63.816 107.696V107.888C64.2 107.824 64.576 107.768 64.944 107.72C65.264 107.688 65.592 107.64 65.928 107.576C65.224 107.736 64.52 107.864 63.816 107.96V109.832C63.768 110.648 63.744 111.48 63.744 112.328C63.744 113.176 63.72 114.024 63.672 114.872C63.624 115.704 63.528 116.536 63.384 117.368C63.24 118.184 63 118.984 62.664 119.768C62.52 120.2 62.344 120.632 62.136 121.064C61.928 121.512 61.712 121.912 61.488 122.264C61.28 122.632 61.072 122.928 60.864 123.152C60.672 123.376 60.504 123.488 60.36 123.488C60.296 123.488 60.248 123.448 60.216 123.368C60.472 123 60.744 122.616 61.032 122.216C61.32 121.816 61.576 121.384 61.8 120.92C61.976 120.472 62.128 120.04 62.256 119.624C62.384 119.208 62.504 118.776 62.616 118.328C62.36 119.272 62.016 120.152 61.584 120.968C61.152 121.8 60.672 122.552 60.144 123.224C60.112 123.144 60.072 123.088 60.024 123.056C59.976 123.024 59.896 123.008 59.784 123.008L59.352 123.656C59.032 123.992 58.776 124.16 58.584 124.16C58.456 124.16 58.36 124.088 58.296 123.944C58.232 123.8 58.2 123.608 58.2 123.368L58.344 122.792L58.632 122.432C58.984 122.016 59.296 121.616 59.568 121.232C59.84 120.848 60.072 120.44 60.264 120.008C60.472 119.592 60.648 119.136 60.792 118.64C60.952 118.144 61.096 117.568 61.224 116.912C61.144 117.296 61.04 117.688 60.912 118.088C60.8 118.488 60.672 118.872 60.528 119.24C60.384 119.608 60.224 119.944 60.048 120.248C59.888 120.568 59.704 120.832 59.496 121.04L58.488 122.288C58.616 121.904 58.776 121.544 58.968 121.208C59.16 120.888 59.36 120.544 59.568 120.176C59.776 119.808 59.976 119.4 60.168 118.952C60.36 118.504 60.52 117.968 60.648 117.344L60.864 117.32C60.992 116.456 61.072 115.608 61.104 114.776C61.152 113.928 61.176 113.064 61.176 112.184C61.176 111.56 61.168 110.928 61.152 110.288C61.152 109.648 61.144 108.992 61.128 108.32C61.096 108.336 61.056 108.344 61.008 108.344H60.888C60.904 109.192 60.928 110.016 60.96 110.816C61.008 111.616 61.032 112.408 61.032 113.192C61.032 113.864 61 114.528 60.936 115.184C60.888 115.808 60.792 116.432 60.648 117.056C60.776 116.496 60.856 115.928 60.888 115.352C60.936 114.76 60.96 114.16 60.96 113.552C60.96 112.72 60.936 111.872 60.888 111.008C60.84 110.144 60.808 109.256 60.792 108.344C60.696 108.36 60.584 108.376 60.456 108.392C60.328 108.392 60.128 108.392 59.856 108.392C59.488 108.248 59.128 108.176 58.776 108.176V108.08C58.776 108.016 58.768 107.952 58.752 107.888C58.752 107.808 58.752 107.728 58.752 107.648C58.752 107.456 58.84 107.36 59.016 107.36L59.208 107.096C58.984 107.016 58.816 106.888 58.704 106.712C58.592 106.536 58.536 106.36 58.536 106.184C58.536 105.944 58.616 105.776 58.776 105.68C58.936 105.584 59.136 105.52 59.376 105.488C59.616 105.44 59.872 105.424 60.144 105.44C60.416 105.44 60.664 105.424 60.888 105.392C60.952 104.768 61.056 104.112 61.2 103.424C61.36 102.72 61.592 102.032 61.896 101.36C62.2 100.688 62.592 100.056 63.072 99.464C63.568 98.872 64.176 98.368 64.896 97.952C65.584 97.536 66.296 97.288 67.032 97.208C67.784 97.112 68.504 97.064 69.192 97.064H69.648C69.792 97.064 69.936 97.072 70.08 97.088L70.104 97.592C70.104 97.656 70.088 97.712 70.056 97.76C70.024 97.808 69.952 97.848 69.84 97.88C69.744 97.896 69.592 97.912 69.384 97.928C69.176 97.944 68.904 97.952 68.568 97.952C68.568 97.984 68.568 98.032 68.568 98.096C68.584 98.144 68.608 98.168 68.64 98.168C69.312 98.216 69.816 98.36 70.152 98.6C70.504 98.84 70.68 99.024 70.68 99.152C70.68 99.296 70.52 99.408 70.2 99.488C69.896 99.568 69.512 99.656 69.048 99.752C68.6 99.832 68.112 99.936 67.584 100.064C67.072 100.192 66.608 100.376 66.192 100.616C64.88 101.528 64.128 103.024 63.936 105.104C64.288 105.072 64.64 105.024 64.992 104.96C65.36 104.896 65.712 104.864 66.048 104.864C66.176 104.864 66.32 104.824 66.48 104.744C66.64 104.664 66.784 104.624 66.912 104.624C66.992 104.624 67.048 104.648 67.08 104.696C67.128 104.728 67.192 104.808 67.272 104.936C66.888 105.144 66.52 105.288 66.168 105.368C66.328 105.336 66.504 105.304 66.696 105.272C66.888 105.224 67.08 105.16 67.272 105.08C67.304 105.16 67.328 105.232 67.344 105.296C67.36 105.36 67.384 105.408 67.416 105.44C67.432 105.44 67.456 105.432 67.488 105.416C67.552 105.384 67.6 105.368 67.632 105.368C67.808 105.432 67.936 105.544 68.016 105.704C68.112 105.864 68.16 106.024 68.16 106.184C68.16 106.264 68.152 106.344 68.136 106.424C68.136 106.488 68.112 106.544 68.064 106.592ZM61.44 115.736C61.504 115.384 61.56 115.024 61.608 114.656C61.672 114.272 61.704 113.888 61.704 113.504C61.704 112.896 61.664 112.28 61.584 111.656C61.52 111.08 61.472 110.512 61.44 109.952C61.456 110.48 61.472 111 61.488 111.512C61.52 112.072 61.536 112.624 61.536 113.168C61.536 113.76 61.512 114.344 61.464 114.92C61.432 115.48 61.376 116.04 61.296 116.6V116.624L61.44 115.736ZM63.168 114.68C63.12 115.784 62.96 116.928 62.688 118.112C62.96 116.976 63.128 115.84 63.192 114.704C63.272 113.6 63.312 112.512 63.312 111.44C63.28 112.512 63.232 113.592 63.168 114.68ZM63.912 105.512C64.056 105.56 64.224 105.584 64.416 105.584C64.64 105.584 64.864 105.56 65.088 105.512C65.328 105.464 65.552 105.416 65.76 105.368C65.44 105.4 65.128 105.432 64.824 105.464C64.536 105.496 64.232 105.512 63.912 105.512ZM66.12 107.528C66.056 107.544 66 107.56 65.952 107.576C66 107.56 66.056 107.544 66.12 107.528ZM71.2928 117.752C71.3568 117.304 71.4128 116.784 71.4608 116.192C71.5248 115.584 71.5808 114.976 71.6288 114.368C71.6768 113.76 71.7248 113.168 71.7728 112.592C71.8208 112 71.8688 111.488 71.9168 111.056C71.8368 111.488 71.7648 111.984 71.7008 112.544C71.6368 113.104 71.5728 113.68 71.5088 114.272C71.4448 114.864 71.3808 115.456 71.3168 116.048C71.2528 116.624 71.1968 117.144 71.1488 117.608C70.9088 117.448 70.7888 117.232 70.7888 116.96C70.7888 116.64 70.7968 116.376 70.8128 116.168C70.8288 115.944 70.8528 115.688 70.8848 115.4L71.1488 115.16C71.1328 115.08 71.1248 115.008 71.1248 114.944V114.704C71.1248 114.336 71.1648 113.92 71.2448 113.456C71.3248 112.976 71.4128 112.496 71.5088 112.016C71.6208 111.52 71.7168 111.048 71.7968 110.6C71.8768 110.136 71.9168 109.736 71.9168 109.4L71.6288 109.328C71.5968 109.712 71.5488 110.152 71.4848 110.648C71.4208 111.128 71.3488 111.632 71.2688 112.16C71.2048 112.672 71.1408 113.184 71.0768 113.696C71.0448 113.968 71.0128 114.224 70.9808 114.464C71.0128 114.016 71.0528 113.536 71.1008 113.024C71.1808 112.288 71.2608 111.56 71.3408 110.84C71.4368 110.104 71.5248 109.384 71.6048 108.68C71.6848 107.976 71.7648 107.328 71.8448 106.736C71.8448 106.496 71.9008 106.24 72.0128 105.968C72.1408 105.68 72.2288 105.384 72.2768 105.08C72.3728 105.112 72.4528 105.128 72.5168 105.128H72.6848C72.8448 105.128 72.9488 105.168 72.9967 105.248C73.0448 105.312 73.0688 105.408 73.0688 105.536V105.656L73.2848 105.728C73.4128 105.488 73.5648 105.296 73.7408 105.152C73.9168 105.008 74.0928 104.936 74.2688 104.936C74.6528 104.936 74.8448 105.344 74.8448 106.16C74.8448 106.592 74.7968 107.056 74.7008 107.552C74.6208 108.032 74.5808 108.504 74.5808 108.968V109.28C74.5808 109.792 74.5248 110.352 74.4128 110.96C74.3008 111.552 74.1728 112.16 74.0288 112.784C73.9008 113.392 73.7808 113.984 73.6688 114.56C73.5568 115.136 73.5008 115.664 73.5008 116.144C73.5008 116.256 73.5088 116.376 73.5248 116.504C73.5408 116.632 73.5488 116.752 73.5488 116.864C73.5488 117.104 73.5008 117.256 73.4048 117.32C73.3248 117.368 73.2208 117.392 73.0928 117.392C73.0928 117.184 73.0848 116.928 73.0688 116.624C73.0528 116.32 73.0448 116.048 73.0448 115.808C73.0128 115.984 72.9967 116.224 72.9967 116.528C72.9967 116.832 72.9808 117.12 72.9488 117.392H72.5888V117.68C72.4448 117.936 72.2528 118.064 72.0128 118.064C71.9008 118.064 71.7728 118.032 71.6288 117.968C71.4848 117.904 71.3728 117.832 71.2928 117.752ZM76.2368 99.32C75.9648 99.48 75.7168 99.688 75.4928 99.944C75.2688 100.2 75.0368 100.448 74.7968 100.688C74.9408 100.592 75.0688 100.488 75.1808 100.376C75.2928 100.264 75.4048 100.152 75.5168 100.04C75.6448 99.928 75.7728 99.816 75.9008 99.704C76.0448 99.592 76.2048 99.488 76.3808 99.392C76.4288 99.456 76.4688 99.512 76.5008 99.56C76.5488 99.608 76.5728 99.656 76.5728 99.704L76.0208 100.256C76.0208 100.224 75.9888 100.192 75.9248 100.16C75.8768 100.128 75.8368 100.112 75.8047 100.112C75.7568 100.272 75.6768 100.4 75.5648 100.496C75.4528 100.592 75.3408 100.68 75.2288 100.76C75.1168 100.84 75.0048 100.928 74.8928 101.024C74.7808 101.12 74.7008 101.248 74.6528 101.408V101.456C74.6528 101.472 74.6768 101.48 74.7248 101.48L75.9248 100.352L75.4688 100.808C75.2448 101.032 75.0048 101.264 74.7488 101.504C74.5088 101.728 74.2768 101.928 74.0528 102.104C73.8448 102.28 73.7168 102.368 73.6688 102.368L73.6448 102.344C73.5328 102.312 73.4128 102.296 73.2848 102.296C73.1728 102.296 73.0528 102.288 72.9248 102.272C72.9248 102.144 72.9008 102.008 72.8528 101.864C72.8208 101.72 72.8048 101.608 72.8048 101.528C72.8048 101.448 72.8448 101.408 72.9248 101.408C72.9248 101.36 72.8928 101.288 72.8288 101.192C72.7808 101.08 72.7248 100.96 72.6608 100.832C72.5968 100.688 72.5328 100.544 72.4688 100.4C72.4208 100.24 72.3968 100.08 72.3968 99.92C72.3968 99.76 72.4608 99.608 72.5888 99.464C72.7328 99.304 72.8928 99.168 73.0688 99.056C73.2608 98.944 73.4448 98.848 73.6208 98.768C73.7968 98.688 73.9248 98.632 74.0048 98.6C74.0688 98.6 74.0928 98.568 74.0768 98.504C74.0608 98.424 74.0848 98.384 74.1488 98.384L74.5808 98.528C74.5488 98.608 74.4448 98.744 74.2688 98.936C74.1088 99.112 73.9888 99.24 73.9088 99.32C74.0208 99.24 74.1488 99.12 74.2928 98.96C74.4528 98.8 74.5728 98.68 74.6528 98.6C74.7328 98.632 74.8048 98.664 74.8688 98.696C74.9328 98.728 74.9808 98.744 75.0128 98.744L75.0848 98.672C75.1968 98.672 75.3168 98.696 75.4448 98.744C75.5888 98.792 75.7168 98.848 75.8288 98.912C75.9408 98.976 76.0368 99.048 76.1168 99.128C76.1968 99.208 76.2368 99.272 76.2368 99.32ZM70.9328 115.04C70.9488 114.864 70.9648 114.688 70.9808 114.512C70.9648 114.704 70.9488 114.88 70.9328 115.04ZM78.7369 117.464C78.7369 117.384 78.7609 117.288 78.8089 117.176C78.8569 117.064 78.8809 116.944 78.8809 116.816C78.9289 116.432 78.9609 116.16 78.9769 116C78.9929 115.824 79.0009 115.672 79.0009 115.544C79.0009 114.872 78.9769 114.152 78.9289 113.384C78.8969 112.6 78.8569 111.848 78.8089 111.128C78.8089 110.904 78.8009 110.64 78.7849 110.336C78.7849 110.032 78.7689 109.792 78.7369 109.616C78.7849 109.056 78.8249 108.504 78.8569 107.96C78.8889 107.416 78.9049 106.864 78.9049 106.304V105.704C78.9049 105.496 78.8969 105.288 78.8809 105.08C78.9289 105.128 78.9769 105.152 79.0249 105.152C79.0889 105.152 79.1529 105.128 79.2169 105.08C79.2969 105.032 79.3689 105.008 79.4329 105.008C79.5449 105.008 79.6329 105.128 79.6969 105.368C79.7769 105.608 79.8169 106.136 79.8169 106.952H80.0329C80.1129 106.056 80.2329 105.344 80.3929 104.816C80.5689 104.288 80.7449 104.024 80.9209 104.024C81.0009 104.024 81.1289 104.2 81.3049 104.552C81.4809 104.888 81.5689 105.424 81.5689 106.16L81.8329 105.728C82.0089 105.52 82.2009 105.304 82.4089 105.08C82.6329 104.856 82.8809 104.656 83.1529 104.48C83.4249 104.304 83.7289 104.16 84.0649 104.048C84.4009 103.92 84.7849 103.856 85.2169 103.856C86.0489 103.856 86.7689 104.048 87.3769 104.432C88.0009 104.8 88.5209 105.288 88.9369 105.896C89.3529 106.488 89.6889 107.168 89.9449 107.936C90.2169 108.688 90.4249 109.456 90.5689 110.24C90.7129 111.008 90.8089 111.752 90.8569 112.472C90.9049 113.192 90.9289 113.808 90.9289 114.32C90.9289 114.784 90.8969 115.064 90.8329 115.16C90.7849 115.24 90.6889 115.288 90.5449 115.304C90.5129 114.072 90.4329 112.816 90.3049 111.536C90.1769 110.256 89.8729 109.016 89.3929 107.816C89.8249 109.08 90.0969 110.328 90.2089 111.56C90.3369 112.776 90.4009 114 90.4009 115.232C90.3049 115.184 90.2169 115.16 90.1369 115.16C90.0729 115.16 90.0169 115.184 89.9689 115.232C89.9689 115.36 89.9769 115.496 89.9929 115.64C90.0089 115.768 90.0169 115.896 90.0169 116.024C90.0329 116.152 90.0409 116.272 90.0409 116.384C89.9449 116.752 89.8489 117.016 89.7529 117.176C89.6569 117.336 89.5689 117.416 89.4889 117.416C89.3929 117.416 89.3129 117.376 89.2489 117.296C89.1849 117.2 89.1209 117.088 89.0569 116.96C89.0089 116.832 88.9529 116.696 88.8889 116.552C88.8409 116.392 88.7689 116.24 88.6729 116.096C88.7049 115.824 88.7289 115.608 88.7449 115.448C88.7609 115.272 88.7689 115.128 88.7689 115.016C88.7689 114.584 88.7609 114.064 88.7449 113.456C88.7289 112.848 88.6809 112.216 88.6009 111.56C88.5369 110.888 88.4249 110.224 88.2649 109.568C88.1209 108.896 87.9129 108.304 87.6409 107.792C87.3849 107.264 87.0569 106.84 86.6569 106.52C86.2569 106.184 85.7769 106.016 85.2169 106.016C84.8329 106.016 84.4889 106.144 84.1849 106.4C83.8969 106.656 83.6409 106.984 83.4169 107.384C83.2089 107.784 83.0249 108.224 82.8649 108.704C82.7049 109.168 82.5769 109.616 82.4809 110.048C82.6249 109.6 82.7689 109.144 82.9129 108.68C83.0729 108.216 83.2569 107.792 83.4649 107.408C83.6889 107.024 83.9449 106.712 84.2329 106.472C84.5209 106.216 84.8569 106.088 85.2409 106.088C85.7369 106.088 86.1609 106.224 86.5129 106.496C86.8809 106.768 87.1849 107.12 87.4249 107.552C87.6809 107.984 87.8809 108.48 88.0249 109.04C88.1849 109.584 88.3049 110.144 88.3849 110.72C88.4649 111.28 88.5129 111.832 88.5289 112.376C88.5609 112.904 88.5769 113.36 88.5769 113.744C88.5769 114.048 88.5689 114.352 88.5529 114.656C88.5529 114.96 88.5449 115.272 88.5289 115.592C88.3849 114.984 88.2729 114.352 88.1929 113.696C88.1289 113.024 88.0569 112.368 87.9769 111.728C87.8969 111.072 87.7929 110.448 87.6649 109.856C87.5529 109.248 87.3849 108.688 87.1609 108.176L87.3289 107.936C87.1689 107.568 86.9849 107.288 86.7769 107.096C86.5849 106.888 86.3929 106.736 86.2009 106.64C86.0089 106.544 85.8329 106.488 85.6729 106.472C85.5129 106.456 85.4089 106.448 85.3609 106.448C84.9609 106.448 84.6009 106.592 84.2809 106.88C83.9769 107.168 83.7049 107.56 83.4649 108.056C83.2409 108.536 83.0409 109.096 82.8649 109.736C82.6889 110.376 82.5369 111.048 82.4089 111.752C82.2809 112.456 82.1689 113.168 82.0729 113.888C81.9769 114.592 81.8969 115.256 81.8329 115.88H82.0489C82.1289 115.336 82.2089 114.736 82.2889 114.08C82.3849 113.424 82.4809 112.76 82.5769 112.088C82.6889 111.4 82.8169 110.736 82.9609 110.096C83.1049 109.456 83.2729 108.88 83.4649 108.368C83.6729 107.856 83.9129 107.44 84.1849 107.12C84.4409 106.816 84.7529 106.64 85.1209 106.592C84.7689 106.672 84.4729 106.896 84.2329 107.264C83.9769 107.648 83.7529 108.12 83.5609 108.68C83.3689 109.24 83.1929 109.856 83.0329 110.528C82.8889 111.184 82.7529 111.816 82.6249 112.424L82.1449 115.928C82.0809 116.152 82.0329 116.352 82.0009 116.528L81.9049 117.032C81.8729 117.192 81.8409 117.368 81.8089 117.56C81.7769 117.736 81.7369 117.944 81.6889 118.184L81.6169 118.472H81.4729L79.0489 117.656C78.9689 117.64 78.9049 117.616 78.8569 117.584C78.8249 117.552 78.7849 117.512 78.7369 117.464ZM82.9129 105.152C82.5929 105.424 82.3369 105.72 82.1449 106.04C81.9689 106.344 81.8009 106.656 81.6409 106.976V107C81.8649 106.536 82.1769 106.064 82.5769 105.584C82.9609 105.136 83.4729 104.8 84.1129 104.576C83.9049 104.64 83.7049 104.704 83.5129 104.768C83.2889 104.848 83.0889 104.976 82.9129 105.152ZM85.7929 104.36C85.7129 104.344 85.6009 104.336 85.4569 104.336C85.9689 104.464 86.4489 104.608 86.8969 104.768C87.3449 104.912 87.7689 105.208 88.1689 105.656C87.8969 105.288 87.5369 105 87.0889 104.792C86.6569 104.584 86.2249 104.44 85.7929 104.36ZM86.4409 107.096C86.3129 107 86.1609 106.928 85.9849 106.88C85.8249 106.816 85.6249 106.736 85.3849 106.64L85.3609 106.592C85.6329 106.608 85.8729 106.672 86.0809 106.784C86.2889 106.88 86.4889 107.056 86.6809 107.312L86.4409 107.096ZM88.2169 105.704C88.4409 105.976 88.6489 106.288 88.8409 106.64C89.0329 106.992 89.2009 107.304 89.3449 107.576C89.1849 107.208 89.0329 106.872 88.8889 106.568C88.7449 106.264 88.5209 105.976 88.2169 105.704ZM106.005 101.48C106.037 101.944 106.061 102.4 106.077 102.848C106.093 103.28 106.101 103.728 106.101 104.192C106.101 105.152 106.069 106.12 106.005 107.096C105.957 108.056 105.893 109.032 105.813 110.024C105.733 111.016 105.653 112.032 105.573 113.072C105.493 114.112 105.421 115.192 105.357 116.312C105.357 116.488 105.349 116.672 105.333 116.864C105.333 117.04 105.317 117.24 105.285 117.464V117.752C105.285 117.8 105.269 117.864 105.237 117.944C105.205 118.024 105.173 118.08 105.141 118.112C104.933 118.352 104.741 118.536 104.565 118.664C104.405 118.776 104.253 118.864 104.109 118.928C103.965 118.976 103.829 119 103.701 119C103.573 119.016 103.445 119.032 103.317 119.048H103.461C103.509 119.048 103.597 119.04 103.725 119.024C103.869 119.008 104.021 118.984 104.181 118.952C104.357 118.904 104.517 118.848 104.661 118.784C104.821 118.704 104.933 118.6 104.997 118.472L105.213 118.04C105.309 117.864 105.365 117.68 105.381 117.488C105.413 117.28 105.429 117.08 105.429 116.888C105.445 116.68 105.453 116.48 105.453 116.288C105.453 116.096 105.469 115.912 105.501 115.736C105.549 114.728 105.613 113.72 105.693 112.712C105.789 111.704 105.877 110.688 105.957 109.664C106.037 108.64 106.109 107.608 106.173 106.568C106.237 105.512 106.269 104.44 106.269 103.352C106.269 103.016 106.261 102.696 106.245 102.392C106.245 102.072 106.237 101.768 106.221 101.48C106.269 101.544 106.317 101.648 106.365 101.792C106.429 101.92 106.477 102.128 106.509 102.416C106.589 102.592 106.637 102.784 106.653 102.992C106.669 103.2 106.693 103.416 106.725 103.64C106.725 104.728 106.685 105.784 106.605 106.808C106.525 107.816 106.445 108.824 106.365 109.832L106.149 109.904L105.933 114.008C105.933 115.16 105.877 116.112 105.765 116.864C105.669 117.6 105.581 118.088 105.501 118.328V118.4C105.261 118.64 105.053 118.824 104.877 118.952C104.717 119.064 104.565 119.152 104.421 119.216C104.277 119.28 104.141 119.312 104.013 119.312C103.901 119.328 103.781 119.336 103.653 119.336H102.117C101.685 119.288 101.221 119.264 100.725 119.264C100.229 119.28 99.7088 119.232 99.1648 119.12C98.6208 119.008 98.0608 118.776 97.4848 118.424C96.9248 118.072 96.3568 117.512 95.7808 116.744C95.7808 116.776 95.7728 116.8 95.7568 116.816C95.7408 116.832 95.7248 116.856 95.7088 116.888C96.2368 117.608 96.8688 118.2 97.6048 118.664C98.3568 119.128 99.1648 119.4 100.029 119.48H102.045C102.237 119.512 102.429 119.528 102.621 119.528C102.829 119.544 103.053 119.552 103.293 119.552C103.533 119.552 103.845 119.52 104.229 119.456C104.629 119.392 105.005 119.184 105.357 118.832C105.421 118.752 105.461 118.696 105.477 118.664C105.509 118.616 105.541 118.552 105.573 118.472L105.645 118.328C105.725 118.184 105.781 118.04 105.813 117.896C105.861 117.736 105.901 117.584 105.933 117.44C105.933 117.616 105.917 117.768 105.885 117.896C105.869 118.024 105.813 118.216 105.717 118.472L105.645 118.544L105.357 118.976C105.213 119.12 105.053 119.232 104.877 119.312C104.701 119.392 104.533 119.448 104.373 119.48C104.213 119.528 104.061 119.56 103.917 119.576C103.789 119.592 103.693 119.608 103.629 119.624H102.837C102.629 119.624 102.453 119.616 102.309 119.6C102.181 119.6 102.077 119.592 101.997 119.576C101.933 119.576 101.877 119.568 101.829 119.552H101.109C100.965 119.552 100.821 119.552 100.677 119.552C100.533 119.568 100.381 119.576 100.221 119.576C99.4688 119.576 98.7328 119.392 98.0128 119.024C97.3088 118.672 96.6528 118.168 96.0448 117.512C95.4528 116.856 94.9248 116.08 94.4608 115.184C93.9968 114.288 93.6448 113.296 93.4048 112.208C93.4048 112.032 93.3888 111.864 93.3568 111.704C93.3408 111.544 93.3328 111.376 93.3328 111.2C93.3328 110.608 93.4208 110.008 93.5968 109.4C93.7888 108.776 94.1248 108.216 94.6048 107.72C95.0848 107.224 95.7328 106.824 96.5488 106.52C97.3648 106.2 98.3968 106.04 99.6448 106.04C100.221 106.04 100.781 106.056 101.325 106.088C101.869 106.104 102.421 106.128 102.981 106.16C102.917 106.208 102.885 106.264 102.885 106.328C102.885 106.408 102.901 106.48 102.933 106.544C102.965 106.592 102.981 106.648 102.981 106.712C102.981 106.792 102.917 106.864 102.789 106.928C102.677 106.976 102.429 107 102.045 107C101.917 107 101.765 107 101.589 107C101.429 106.984 101.245 106.968 101.037 106.952V107.168C101.805 107.28 102.421 107.432 102.885 107.624C103.365 107.8 103.661 107.96 103.773 108.104L103.821 108.152L103.917 107.096C103.965 106.664 103.989 106.176 103.989 105.632C103.989 105.072 103.973 104.52 103.941 103.976C103.909 103.432 103.893 103.008 103.893 102.704C103.893 102.32 103.917 102.064 103.965 101.936C104.013 101.808 104.077 101.744 104.157 101.744C104.221 101.744 104.269 101.88 104.301 102.152C104.349 102.424 104.381 102.736 104.397 103.088C104.429 103.424 104.445 103.76 104.445 104.096V104.792C104.445 105.256 104.437 105.728 104.421 106.208C104.405 106.672 104.381 107.136 104.349 107.6C104.397 106.992 104.437 106.4 104.469 105.824C104.501 105.232 104.517 104.632 104.517 104.024C104.517 103.656 104.509 103.296 104.493 102.944C104.477 102.576 104.453 102.208 104.421 101.84C104.517 101.936 104.589 101.984 104.637 101.984C104.701 101.984 104.749 101.936 104.781 101.84C104.765 101.712 104.749 101.576 104.733 101.432C104.717 101.304 104.709 101.176 104.709 101.048V100.688C104.789 100.496 104.893 100.352 105.021 100.256C105.149 100.144 105.261 100.088 105.357 100.088C105.629 100.088 105.869 100.384 106.077 100.976L106.005 101.48ZM102.117 108.68C101.589 108.712 100.989 108.744 100.317 108.776C99.6608 108.808 99.0368 108.896 98.4448 109.04C97.8528 109.168 97.3408 109.368 96.9088 109.64C96.4928 109.912 96.2608 110.288 96.2128 110.768C96.2128 111.296 96.3248 111.888 96.5488 112.544C96.7728 113.2 97.0688 113.824 97.4368 114.416C97.8048 114.992 98.2208 115.488 98.6848 115.904C99.1648 116.32 99.6608 116.552 100.173 116.6H101.541C101.621 116.6 101.677 116.608 101.709 116.624C101.757 116.624 101.821 116.64 101.901 116.672H102.477C102.717 116.72 102.957 116.744 103.197 116.744C103.197 115.4 103.253 114.024 103.365 112.616C103.493 111.192 103.629 109.8 103.773 108.44C103.565 108.6 103.013 108.68 102.117 108.68ZM103.845 113.648C103.845 113.824 103.829 114.008 103.797 114.2C103.781 114.376 103.773 114.576 103.773 114.8C103.949 113.904 104.053 112.96 104.085 111.968C104.117 110.976 104.157 110.024 104.205 109.112C104.125 109.88 104.061 110.64 104.013 111.392C103.981 112.128 103.925 112.88 103.845 113.648ZM105.933 116.24C105.933 116.064 105.941 115.888 105.957 115.712C105.973 115.52 105.997 115.32 106.029 115.112C106.013 115.592 106.005 116.048 106.005 116.48C106.005 116.896 105.981 117.192 105.933 117.368C105.933 117.288 105.933 117.216 105.933 117.152C105.949 117.072 105.957 116.992 105.957 116.912C105.957 116.784 105.949 116.664 105.933 116.552C105.933 116.44 105.933 116.336 105.933 116.24ZM106.293 112.352C106.261 112.432 106.237 112.528 106.221 112.64C106.205 112.736 106.181 112.84 106.149 112.952L106.245 111.488L106.293 112.352ZM106.077 114.224C106.077 114.368 106.069 114.512 106.053 114.656C106.053 114.8 106.045 114.936 106.029 115.064C106.029 114.744 106.037 114.424 106.053 114.104C106.069 113.768 106.093 113.464 106.125 113.192L106.077 114.224ZM103.701 115.712C103.717 115.648 103.725 115.584 103.725 115.52C103.725 115.456 103.741 115.384 103.773 115.304V115.04C103.757 115.072 103.749 115.104 103.749 115.136C103.749 115.152 103.741 115.168 103.725 115.184L103.701 115.232V115.712ZM103.629 116.864C103.645 116.72 103.661 116.576 103.677 116.432C103.693 116.272 103.701 116.112 103.701 115.952V115.88L103.605 116.816L103.629 116.864ZM117.866 119.432C117.258 119.64 116.794 119.752 116.474 119.768C116.154 119.8 115.874 119.824 115.634 119.84C114.738 119.84 113.93 119.672 113.21 119.336C112.49 119 111.874 118.544 111.362 117.968C110.85 117.392 110.45 116.72 110.162 115.952C109.89 115.168 109.754 114.336 109.754 113.456C109.754 112.944 109.802 112.416 109.898 111.872C109.994 111.312 110.138 110.768 110.33 110.24C110.522 109.696 110.77 109.192 111.074 108.728C111.362 108.264 111.706 107.848 112.106 107.48C111.69 107.816 111.338 108.216 111.05 108.68C110.746 109.144 110.49 109.648 110.282 110.192C110.074 110.72 109.922 111.272 109.826 111.848C109.73 112.408 109.682 112.952 109.682 113.48C109.682 114.152 109.786 114.872 109.994 115.64C110.218 116.392 110.57 117.096 111.05 117.752C111.53 118.392 112.146 118.928 112.898 119.36C113.666 119.792 114.594 120.008 115.682 120.008C116.194 120.008 116.73 119.936 117.29 119.792C116.682 120.192 116.002 120.392 115.25 120.392C114.642 120.392 114.066 120.296 113.522 120.104C112.994 119.928 112.498 119.672 112.034 119.336C111.586 119.016 111.178 118.632 110.81 118.184C110.442 117.736 110.13 117.256 109.874 116.744L110.09 116.552C109.818 116.008 109.618 115.464 109.49 114.92C109.378 114.376 109.322 113.824 109.322 113.264C109.322 112.448 109.434 111.664 109.658 110.912C109.898 110.16 110.21 109.448 110.594 108.776L111.17 107.984C111.266 107.808 111.402 107.632 111.578 107.456C111.77 107.28 111.978 107.112 112.202 106.952C112.426 106.776 112.658 106.624 112.898 106.496C113.154 106.352 113.394 106.224 113.618 106.112C114.194 105.824 114.77 105.568 115.346 105.344C115.922 105.104 116.594 104.928 117.362 104.816L117.266 104.744C115.794 104.888 114.546 105.248 113.522 105.824C112.498 106.384 111.666 107.072 111.026 107.888C110.386 108.704 109.922 109.6 109.634 110.576C109.346 111.536 109.202 112.48 109.202 113.408C109.202 113.904 109.242 114.408 109.322 114.92C109.418 115.416 109.554 115.912 109.73 116.408C109.33 115.448 109.13 114.432 109.13 113.36C109.13 112.304 109.306 111.256 109.658 110.216C110.01 109.176 110.562 108.216 111.314 107.336C112.274 106.456 113.322 105.784 114.458 105.32C115.594 104.84 116.69 104.6 117.746 104.6C118.082 104.6 118.426 104.656 118.778 104.768C119.13 104.88 119.45 105.056 119.738 105.296C120.026 105.52 120.258 105.816 120.434 106.184C120.626 106.552 120.722 107 120.722 107.528C120.722 107.96 120.618 108.488 120.41 109.112C120.202 109.736 119.89 110.344 119.474 110.936C119.074 111.512 118.57 112.008 117.962 112.424C117.354 112.824 116.65 113.024 115.85 113.024H115.058C114.466 112.896 113.922 112.752 113.426 112.592C112.946 112.416 112.49 112.28 112.058 112.184C111.994 112.44 111.954 112.688 111.938 112.928C111.938 113.152 111.938 113.376 111.938 113.6C111.938 114.064 111.986 114.52 112.082 114.968C112.194 115.4 112.362 115.8 112.586 116.168C112.81 116.536 113.09 116.848 113.426 117.104C113.778 117.344 114.202 117.496 114.698 117.56C115.002 117.624 115.266 117.664 115.49 117.68C115.714 117.68 115.898 117.688 116.042 117.704C116.202 117.704 116.314 117.728 116.378 117.776C116.458 117.808 116.498 117.88 116.498 117.992C116.338 118.04 116.17 118.072 115.994 118.088C115.834 118.104 115.666 118.112 115.49 118.112C114.93 118.112 114.426 118.024 113.978 117.848C113.53 117.656 113.146 117.44 112.826 117.2C113.194 117.568 113.634 117.832 114.146 117.992C114.658 118.136 115.162 118.208 115.658 118.208C115.93 118.208 116.21 118.184 116.498 118.136C116.466 118.232 116.45 118.288 116.45 118.304C116.45 118.4 116.49 118.464 116.57 118.496C116.634 118.48 116.746 118.44 116.906 118.376C117.066 118.296 117.226 118.224 117.386 118.16C117.562 118.08 117.73 118.016 117.89 117.968C118.05 117.904 118.162 117.872 118.226 117.872C118.306 117.872 118.378 117.888 118.442 117.92C118.506 117.936 118.538 118.024 118.538 118.184C118.538 118.344 118.482 118.536 118.37 118.76C118.258 118.984 118.09 119.208 117.866 119.432ZM114.554 109.928L115.082 110.024C115.258 110.056 115.418 110.072 115.562 110.072C115.722 110.072 115.906 110.024 116.114 109.928C116.338 109.816 116.554 109.664 116.762 109.472C116.986 109.28 117.178 109.04 117.338 108.752C117.514 108.464 117.642 108.136 117.722 107.768L117.77 107.624C117.546 107.624 117.21 107.68 116.762 107.792C116.314 107.904 115.85 108.056 115.37 108.248C114.89 108.424 114.442 108.64 114.026 108.896C113.61 109.136 113.322 109.4 113.162 109.688C113.402 109.736 113.634 109.784 113.858 109.832C114.098 109.864 114.33 109.896 114.554 109.928ZM113.45 111.704C113.482 111.672 113.498 111.624 113.498 111.56C113.514 111.496 113.522 111.448 113.522 111.416L112.394 111.008L112.274 111.344L113.45 111.704ZM112.778 117.152C112.666 117.024 112.554 116.896 112.442 116.768C112.346 116.656 112.266 116.544 112.202 116.432C112.346 116.704 112.538 116.944 112.778 117.152ZM127.04 119.264C126.88 119.296 126.704 119.312 126.512 119.312H125.816C125.4 119.312 125.104 119.36 124.928 119.456C124.768 119.552 124.672 119.6 124.64 119.6L124.544 119.168V118.736L124.424 116.48C124.392 116.048 124.304 115.584 124.16 115.088C124.016 114.592 123.904 114.088 123.824 113.576C123.776 113.24 123.736 112.92 123.704 112.616L123.608 111.68C123.576 111.36 123.536 111.032 123.488 110.696C123.456 110.36 123.4 110 123.32 109.616C123.32 109.52 123.32 109.424 123.32 109.328C123.336 109.232 123.344 109.136 123.344 109.04C123.344 108.544 123.304 108.056 123.224 107.576C123.144 107.096 123.032 106.624 122.888 106.16C123 106.112 123.104 106.072 123.2 106.04C123.296 105.992 123.384 105.968 123.464 105.968C123.544 105.968 123.632 106.064 123.728 106.256C123.824 106.432 123.928 106.808 124.04 107.384C124.072 107.384 124.12 107.376 124.184 107.36C124.248 107.328 124.296 107.312 124.328 107.312C124.312 107.04 124.272 106.752 124.208 106.448C124.144 106.128 124.08 105.824 124.016 105.536C123.952 105.248 123.888 104.992 123.824 104.768C123.776 104.528 123.752 104.336 123.752 104.192C123.752 104.16 123.752 104.12 123.752 104.072C123.768 104.024 123.808 104 123.872 104C123.952 104 124.056 104.088 124.184 104.264C124.312 104.44 124.448 104.664 124.592 104.936C124.736 105.208 124.872 105.504 125 105.824C125.144 106.128 125.272 106.416 125.384 106.688C125.816 105.872 126.304 105.256 126.848 104.84C127.408 104.408 128.136 104.192 129.032 104.192C129.688 104.192 130.224 104.272 130.64 104.432C131.056 104.576 131.376 104.744 131.6 104.936C131.84 105.112 132 105.28 132.08 105.44L132.224 105.68C132.224 105.776 132.176 105.84 132.08 105.872C131.664 105.472 131.192 105.168 130.664 104.96C130.136 104.752 129.592 104.648 129.032 104.648C128.488 104.648 128.08 104.72 127.808 104.864C127.552 104.992 127.28 105.152 126.992 105.344C127.296 105.152 127.576 105 127.832 104.888C128.104 104.776 128.496 104.72 129.008 104.72C129.568 104.72 130.104 104.832 130.616 105.056C131.128 105.264 131.568 105.536 131.936 105.872C131.856 105.904 131.784 105.944 131.72 105.992C131.672 106.024 131.648 106.08 131.648 106.16C131.728 106.16 131.816 106.216 131.912 106.328C132.008 106.424 132.096 106.544 132.176 106.688C132.256 106.832 132.32 106.984 132.368 107.144C132.432 107.288 132.464 107.408 132.464 107.504C132.464 107.776 132.36 107.912 132.152 107.912C131.992 107.912 131.8 107.856 131.576 107.744C131.528 107.728 131.424 107.64 131.264 107.48C131.12 107.32 130.936 107.16 130.712 107C130.488 106.824 130.232 106.664 129.944 106.52C129.656 106.376 129.336 106.304 128.984 106.304C128.696 106.304 128.44 106.368 128.216 106.496C128.008 106.608 127.816 106.768 127.64 106.976C127.464 107.168 127.304 107.392 127.16 107.648L126.848 108.224C127.088 107.792 127.352 107.4 127.64 107.048C127.96 106.632 128.36 106.424 128.84 106.424C129.256 106.424 129.64 106.52 129.992 106.712C130.344 106.888 130.632 107.112 130.856 107.384C130.584 107.272 130.264 107.16 129.896 107.048C129.528 106.936 129.176 106.88 128.84 106.88C128.664 106.88 128.512 106.92 128.384 107C128.256 107.08 128.144 107.184 128.048 107.312C127.968 107.424 127.888 107.552 127.808 107.696C127.744 107.84 127.672 107.976 127.592 108.104L127.28 108.152C127.008 108.616 126.784 109.16 126.608 109.784C126.448 110.392 126.368 111.032 126.368 111.704C126.368 112.104 126.384 112.464 126.416 112.784C126.464 113.104 126.528 113.432 126.608 113.768L126.896 114.512L126.848 113.816C126.816 113.272 126.784 112.792 126.752 112.376C126.72 111.944 126.704 111.472 126.704 110.96C126.736 110.496 126.8 110.056 126.896 109.64C126.976 109.288 127.096 108.96 127.256 108.656C127.064 109.04 126.936 109.48 126.872 109.976C126.792 110.52 126.752 111.096 126.752 111.704C126.752 112.184 126.776 112.64 126.824 113.072C126.872 113.504 126.928 113.936 126.992 114.368C127.072 114.8 127.152 115.248 127.232 115.712C127.312 116.16 127.376 116.656 127.424 117.2L127.496 117.656L127.64 119.024L127.04 119.264ZM127.328 108.536L127.256 108.656L127.328 108.536Z" fill="#EAEAEA"/>
<path d="M61.656 133.16C62.056 132.92 62.424 132.608 62.76 132.224C63.096 131.84 63.448 131.464 63.816 131.096C63.592 131.24 63.392 131.4 63.216 131.576L62.712 132.08C62.536 132.256 62.344 132.432 62.136 132.608C61.944 132.768 61.712 132.912 61.44 133.04C61.36 132.96 61.296 132.896 61.248 132.848C61.216 132.8 61.2 132.736 61.2 132.656C61.2 132.576 61.208 132.528 61.224 132.512L61.992 131.744C61.992 131.808 62.032 131.864 62.112 131.912C62.192 131.944 62.256 131.96 62.304 131.96C62.384 131.72 62.504 131.528 62.664 131.384C62.824 131.24 62.992 131.112 63.168 131C63.344 130.872 63.512 130.736 63.672 130.592C63.832 130.448 63.952 130.256 64.032 130.016C64.016 130 64.008 129.984 64.008 129.968C63.976 129.936 63.952 129.92 63.936 129.92L62.136 131.6C62.248 131.472 62.432 131.256 62.688 130.952C62.944 130.648 63.208 130.336 63.48 130.016C63.752 129.696 64 129.416 64.224 129.176C64.464 128.936 64.616 128.816 64.68 128.816L64.704 128.84C64.832 128.888 65.008 128.936 65.232 128.984C65.472 129.016 65.648 129.032 65.76 129.032C65.872 129.032 66 129.008 66.144 128.96C66.144 129.056 66.192 129.168 66.288 129.296C66.384 129.424 66.488 129.552 66.6 129.68C66.712 129.808 66.816 129.936 66.912 130.064C67.008 130.176 67.056 130.264 67.056 130.328C67.056 130.44 67.016 130.496 66.936 130.496H66.864C66.864 130.64 66.872 130.896 66.888 131.264C66.92 131.616 66.936 132.024 66.936 132.488C66.936 132.744 66.856 132.968 66.696 133.16C66.536 133.352 66.352 133.52 66.144 133.664C65.936 133.808 65.72 133.928 65.496 134.024C65.288 134.12 65.128 134.192 65.016 134.24C64.92 134.24 64.88 134.288 64.896 134.384C64.912 134.496 64.88 134.552 64.8 134.552H64.68C64.632 134.552 64.56 134.528 64.464 134.48C64.368 134.448 64.264 134.4 64.152 134.336C64.168 134.288 64.248 134.168 64.392 133.976C64.552 133.768 64.72 133.552 64.896 133.328C65.072 133.088 65.24 132.872 65.4 132.68C65.56 132.472 65.664 132.344 65.712 132.296C65.632 132.344 65.504 132.464 65.328 132.656C65.152 132.832 64.968 133.032 64.776 133.256C64.6 133.464 64.424 133.664 64.248 133.856C64.088 134.032 63.984 134.144 63.936 134.192C63.728 134.08 63.584 134.024 63.504 134.024L63.384 134.12C63.208 134.12 63.016 134.08 62.808 134C62.616 133.936 62.432 133.856 62.256 133.76C62.096 133.664 61.952 133.568 61.824 133.472C61.712 133.376 61.656 133.304 61.656 133.256V133.16ZM80.4984 132.728C79.7944 133.016 79.0664 133.24 78.3144 133.4C77.5784 133.56 76.8264 133.64 76.0584 133.64C75.3544 133.64 74.6664 133.56 73.9944 133.4C73.3224 133.24 72.7064 132.984 72.1464 132.632C71.5864 132.28 71.0904 131.824 70.6584 131.264C70.2424 130.688 69.9224 130 69.6984 129.2C69.7464 129.904 69.9384 130.512 70.2744 131.024C70.6104 131.52 71.0264 131.952 71.5224 132.32C72.0344 132.672 72.5944 132.96 73.2024 133.184C73.8104 133.408 74.3944 133.592 74.9544 133.736C75.0344 133.752 75.1464 133.76 75.2904 133.76C76.2344 133.76 77.0904 133.68 77.8584 133.52C78.6264 133.36 79.4104 133.192 80.2104 133.016C79.9544 133.224 79.6424 133.408 79.2744 133.568C78.9224 133.712 78.5304 133.84 78.0984 133.952C77.6824 134.048 77.2424 134.12 76.7784 134.168C76.3144 134.232 75.8504 134.264 75.3864 134.264H75.1224C75.0424 134.264 74.9624 134.256 74.8824 134.24L74.7144 133.928C74.1384 133.864 73.5384 133.72 72.9144 133.496C72.2904 133.272 71.7144 132.96 71.1864 132.56C70.6744 132.144 70.2424 131.64 69.8904 131.048C69.5544 130.456 69.3864 129.768 69.3864 128.984C69.3864 128.328 69.4744 127.688 69.6504 127.064C69.8264 126.44 70.0584 125.832 70.3464 125.24C70.3304 125.256 70.3064 125.264 70.2744 125.264C70.2264 125.264 70.2024 125.232 70.2024 125.168C69.9144 125.744 69.6664 126.344 69.4584 126.968C69.2664 127.576 69.1704 128.24 69.1704 128.96C69.1704 129.728 69.3464 130.408 69.6984 131C70.0504 131.592 70.4664 132.096 70.9464 132.512C71.4424 132.912 71.9464 133.24 72.4584 133.496C72.9224 133.72 73.3064 133.88 73.6104 133.976C73.1144 133.832 72.6104 133.624 72.0984 133.352C71.5544 133.064 71.0584 132.704 70.6104 132.272C70.1784 131.824 69.8184 131.312 69.5304 130.736C69.2424 130.144 69.0984 129.496 69.0984 128.792C69.0984 127.784 69.2824 126.84 69.6504 125.96C70.0184 125.08 70.5064 124.32 71.1144 123.68C71.7224 123.024 72.4184 122.512 73.2024 122.144C74.0024 121.76 74.8264 121.568 75.6744 121.568C75.8184 121.536 75.9944 121.52 76.2024 121.52C76.4264 121.504 76.6104 121.496 76.7544 121.496C77.2664 121.608 77.7784 121.744 78.2904 121.904C78.8184 122.064 79.3384 122.288 79.8504 122.576C79.7864 122.608 79.7384 122.656 79.7064 122.72C79.6904 122.768 79.6744 122.832 79.6584 122.912C79.6424 122.976 79.6104 123.032 79.5624 123.08C79.5304 123.128 79.4664 123.152 79.3704 123.152C79.2904 123.152 79.1704 123.128 79.0104 123.08C78.8504 123.032 78.6264 122.96 78.3384 122.864C78.2904 122.912 78.2664 122.984 78.2664 123.08C78.6504 123.272 78.9144 123.496 79.0584 123.752C79.2024 123.992 79.2744 124.224 79.2744 124.448C79.2744 124.56 79.1544 124.656 78.9144 124.736C78.7064 124.736 78.3784 124.696 77.9304 124.616C77.4984 124.536 77.0104 124.496 76.4664 124.496C76.2264 124.496 75.9624 124.512 75.6744 124.544C75.3864 124.56 75.0984 124.608 74.8104 124.688C74.5224 124.752 74.2504 124.856 73.9944 125C73.7384 125.128 73.5304 125.304 73.3704 125.528C73.1784 125.784 73.0024 126.072 72.8424 126.392C72.6824 126.712 72.5384 127.04 72.4104 127.376C72.2824 127.696 72.1784 128.008 72.0984 128.312C72.0344 128.616 72.0024 128.888 72.0024 129.128C72.0024 129.352 72.1064 129.608 72.3144 129.896C72.5224 130.168 72.7864 130.432 73.1064 130.688C73.4424 130.928 73.8184 131.136 74.2344 131.312C74.6664 131.488 75.0984 131.576 75.5304 131.576C75.7384 131.576 75.9864 131.544 76.2744 131.48C76.5784 131.416 76.8824 131.344 77.1864 131.264C77.5064 131.168 77.8184 131.088 78.1224 131.024C78.4264 130.96 78.6824 130.928 78.8904 130.928C79.0824 130.928 79.2024 130.952 79.2504 131C79.3144 131.032 79.3464 131.104 79.3464 131.216C78.9784 131.344 78.5944 131.472 78.1944 131.6C77.9384 131.68 77.6904 131.76 77.4504 131.84L78.1944 131.648C78.5784 131.536 78.9624 131.416 79.3464 131.288C79.3464 131.368 79.3464 131.44 79.3464 131.504C79.3624 131.568 79.4104 131.64 79.4904 131.72L79.7304 131.624C79.8584 131.576 79.9944 131.512 80.1384 131.432C80.4584 131.432 80.6744 131.464 80.7864 131.528C80.9144 131.592 80.9784 131.688 80.9784 131.816C80.9784 131.896 80.9624 131.968 80.9304 132.032C80.9144 132.08 80.8824 132.136 80.8344 132.2C80.8024 132.248 80.7544 132.312 80.6904 132.392C80.6264 132.472 80.5624 132.584 80.4984 132.728ZM71.7864 129.848C71.9144 130.136 72.1064 130.416 72.3624 130.688C72.6184 130.944 72.9064 131.176 73.2264 131.384C73.5624 131.576 73.9144 131.736 74.2824 131.864C74.6344 131.992 74.9864 132.064 75.3384 132.08C75.0184 132.048 74.6824 131.968 74.3304 131.84C73.9624 131.712 73.6104 131.552 73.2744 131.36C72.9544 131.152 72.6584 130.92 72.3864 130.664C72.1304 130.408 71.9304 130.136 71.7864 129.848ZM77.3064 131.864C77.3544 131.848 77.4024 131.84 77.4504 131.84C77.4024 131.84 77.3544 131.848 77.3064 131.864ZM73.7064 134C73.6744 134 73.6424 133.992 73.6104 133.976C73.6424 133.992 73.6744 134 73.7064 134ZM87.9911 119.552C88.0071 119.632 88.0951 119.672 88.2551 119.672H88.3031C88.3991 119.672 88.4631 119.68 88.4951 119.696C89.3271 119.952 90.1511 120.328 90.9671 120.824C91.7991 121.304 92.5431 121.888 93.1991 122.576C93.8711 123.248 94.4071 124.016 94.8071 124.88C95.2231 125.744 95.4311 126.672 95.4311 127.664C95.4311 128.528 95.2631 129.36 94.9271 130.16C94.5911 130.96 94.1271 131.656 93.5351 132.248C94.1431 131.72 94.6231 131.064 94.9751 130.28C95.3431 129.48 95.5271 128.624 95.5271 127.712C95.5271 126.688 95.3111 125.736 94.8791 124.856C94.4471 123.96 93.8951 123.16 93.2231 122.456C92.5511 121.752 91.7991 121.152 90.9671 120.656C90.1511 120.144 89.3511 119.752 88.5671 119.48C89.1751 119.48 89.7911 119.616 90.4151 119.888C91.0551 120.16 91.6631 120.52 92.2391 120.968C92.8151 121.4 93.3431 121.904 93.8231 122.48C94.3191 123.04 94.7351 123.616 95.0711 124.208L94.9031 124.448C95.2231 124.928 95.4631 125.448 95.6231 126.008C95.7991 126.568 95.8871 127.144 95.8871 127.736C95.8871 128.872 95.6391 129.872 95.1431 130.736C94.6631 131.584 94.0471 132.296 93.2951 132.872C92.5591 133.432 91.7431 133.856 90.8471 134.144C89.9671 134.432 89.1351 134.576 88.3511 134.576C87.9031 134.576 87.4471 134.528 86.9831 134.432C86.5351 134.336 86.0791 134.176 85.6151 133.952V134.096C86.0631 134.352 86.5191 134.528 86.9831 134.624C87.4631 134.72 87.9351 134.768 88.3991 134.768C89.5511 134.768 90.6791 134.512 91.7831 134C92.9031 133.504 93.8471 132.8 94.6151 131.888C93.8791 132.832 92.9591 133.568 91.8551 134.096C90.7671 134.624 89.6311 134.888 88.4471 134.888C87.2311 134.888 86.2471 134.648 85.4951 134.168C84.7431 133.704 84.1511 133.128 83.7191 132.44C83.3031 131.752 83.0231 131.024 82.8791 130.256C82.7351 129.488 82.6631 128.8 82.6631 128.192C82.6631 127.376 82.7671 126.576 82.9751 125.792C83.1991 125.008 83.5351 124.288 83.9831 123.632C84.4311 122.976 85.0071 122.416 85.7111 121.952C86.4151 121.472 87.2631 121.136 88.2551 120.944L87.5591 120.776C87.2231 120.696 86.9831 120.6 86.8391 120.488C86.6951 120.376 86.6231 120.28 86.6231 120.2C86.6231 120.072 86.7591 119.936 87.0311 119.792C87.3191 119.632 87.6391 119.552 87.9911 119.552ZM86.9111 122.576C87.3431 122.416 87.7591 122.336 88.1591 122.336C88.5591 122.336 88.8631 122.4 89.0711 122.528C89.2951 122.64 89.4071 122.76 89.4071 122.888C89.4071 122.968 89.3111 123.056 89.1191 123.152C88.9431 123.248 88.7111 123.384 88.4231 123.56C88.1511 123.72 87.8471 123.928 87.5111 124.184C87.1911 124.44 86.8871 124.768 86.5991 125.168C86.3271 125.552 86.0951 126.024 85.9031 126.584C85.7271 127.144 85.6391 127.8 85.6391 128.552C85.6391 129.656 85.8871 130.488 86.3831 131.048C86.8791 131.608 87.5671 131.888 88.4471 131.888C89.0071 131.888 89.5751 131.792 90.1511 131.6C90.7431 131.408 91.2711 131.136 91.7351 130.784C92.2151 130.432 92.5991 130 92.8871 129.488C93.1911 128.976 93.3431 128.4 93.3431 127.76C93.3431 127.28 93.2551 126.8 93.0791 126.32C92.9191 125.84 92.6871 125.384 92.3831 124.952C92.0951 124.504 91.7431 124.088 91.3271 123.704C90.9271 123.32 90.4871 122.992 90.0071 122.72C89.5431 122.464 89.1591 122.272 88.8551 122.144C88.5671 122 88.3591 121.864 88.2311 121.736C88.1031 121.8 87.9191 121.88 87.6791 121.976C87.4551 122.056 87.1511 122.184 86.7671 122.36L86.9111 122.576ZM88.5191 121.448C89.2551 121.688 89.9591 122.048 90.6311 122.528C91.2071 122.96 91.7351 123.432 92.2151 123.944C91.7511 123.4 91.2471 122.912 90.7031 122.48C90.0791 121.968 89.3831 121.568 88.6151 121.28L88.5191 121.448ZM93.1751 129.632C92.9351 130.144 92.5991 130.6 92.1671 131C92.4551 130.808 92.6951 130.576 92.8871 130.304C93.0951 130.032 93.2631 129.76 93.3911 129.488C93.5191 129.216 93.6151 128.968 93.6791 128.744C93.7271 128.536 93.7671 128.368 93.7991 128.24C93.6231 128.656 93.4151 129.12 93.1751 129.632ZM94.7831 131.696C94.7671 131.728 94.7431 131.76 94.7111 131.792C94.6951 131.808 94.6791 131.816 94.6631 131.816C94.6471 131.816 94.6871 131.736 94.7831 131.576C94.8791 131.4 94.9911 131.2 95.1191 130.976C95.2631 130.736 95.3991 130.488 95.5271 130.232C95.6391 130.04 95.7191 129.872 95.7671 129.728C95.5431 130.416 95.2151 131.072 94.7831 131.696ZM96.1271 127.808C96.1271 128.064 96.1111 128.32 96.0791 128.576C96.0471 128.816 95.9911 129.04 95.9111 129.248C96.0231 128.848 96.0791 128.4 96.0791 127.904C96.0791 127.536 96.0471 127.176 95.9831 126.824C95.9351 126.52 95.8711 126.224 95.7911 125.936C95.8711 126.224 95.9431 126.512 96.0071 126.8C96.0871 127.12 96.1271 127.456 96.1271 127.808ZM88.5191 121.064L88.3031 120.968C88.2871 121 88.2631 121.032 88.2311 121.064C88.1991 121.096 88.1831 121.128 88.1831 121.16C88.1831 121.192 88.1991 121.24 88.2311 121.304C88.2791 121.352 88.3191 121.392 88.3511 121.424L88.5191 121.064ZM92.3591 124.112C92.3111 124.048 92.2631 123.992 92.2151 123.944C92.2631 124.008 92.3111 124.064 92.3591 124.112ZM95.7671 129.728C95.7831 129.696 95.7911 129.664 95.7911 129.632C95.7911 129.664 95.7831 129.696 95.7671 129.728ZM95.8151 129.584C95.7991 129.6 95.7911 129.616 95.7911 129.632C95.7911 129.616 95.7991 129.6 95.8151 129.584ZM108.766 132.848C108.766 132.32 108.726 131.784 108.646 131.24C108.582 130.696 108.55 130.168 108.55 129.656V129.008C108.47 128.384 108.374 127.656 108.262 126.824C108.15 125.976 108.006 125.176 107.83 124.424C107.654 123.672 107.438 123.032 107.182 122.504C106.926 121.976 106.606 121.712 106.222 121.712C105.662 121.712 105.086 121.976 104.494 122.504C103.902 123.016 103.406 123.768 103.006 124.76C102.814 125.32 102.678 125.912 102.598 126.536C102.534 127.16 102.478 127.816 102.43 128.504C102.382 129.192 102.334 129.904 102.286 130.64C102.254 131.36 102.182 132.112 102.07 132.896C102.038 132.976 102.006 133.072 101.974 133.184C101.958 133.296 101.942 133.392 101.926 133.472H98.9741V131.528C98.9581 131.368 98.9421 131.176 98.9261 130.952C98.9101 130.728 98.8861 130.504 98.8541 130.28C98.8381 130.04 98.8221 129.808 98.8061 129.584C98.7901 129.36 98.7741 129.168 98.7581 129.008C98.7581 127.712 98.7021 126.416 98.5901 125.12C98.4941 123.824 98.4301 122.504 98.3981 121.16L98.9501 121.04C98.9981 121.04 99.0461 121.088 99.0941 121.184C99.1581 121.264 99.2061 121.424 99.2381 121.664C99.2861 121.904 99.3261 122.248 99.3581 122.696C99.4061 123.128 99.4461 123.696 99.4781 124.4C99.4941 124.4 99.5181 124.392 99.5501 124.376C99.6141 124.344 99.6621 124.328 99.6941 124.328C99.6941 124.216 99.6861 124.104 99.6701 123.992C99.6701 123.88 99.6701 123.768 99.6701 123.656C99.6701 122.28 99.7581 121.224 99.9341 120.488C100.126 119.736 100.286 119.36 100.414 119.36C100.51 119.36 100.606 119.568 100.702 119.984C100.798 120.4 100.902 121.056 101.014 121.952C101.286 121.52 101.598 121.104 101.95 120.704C102.302 120.304 102.694 119.96 103.126 119.672C103.574 119.368 104.054 119.128 104.566 118.952C105.078 118.776 105.638 118.688 106.246 118.688C106.774 118.688 107.238 118.8 107.638 119.024C108.038 119.248 108.39 119.544 108.694 119.912C109.014 120.264 109.278 120.672 109.486 121.136C109.71 121.584 109.902 122.04 110.062 122.504C110.222 122.952 110.35 123.392 110.446 123.824C110.558 124.24 110.654 124.592 110.734 124.88C110.734 124.912 110.742 124.952 110.758 125C110.774 125.032 110.79 125.064 110.806 125.096C110.998 124.584 111.238 124 111.526 123.344C111.814 122.672 112.174 122.04 112.606 121.448C113.038 120.856 113.542 120.36 114.118 119.96C114.71 119.544 115.39 119.336 116.158 119.336C116.91 119.336 117.55 119.536 118.078 119.936C118.606 120.336 119.046 120.848 119.398 121.472C119.766 122.096 120.054 122.792 120.262 123.56C120.486 124.312 120.654 125.056 120.766 125.792C120.878 126.512 120.95 127.176 120.982 127.784C121.014 128.392 121.03 128.856 121.03 129.176C121.03 129.688 121.006 130.064 120.958 130.304C120.926 130.544 120.822 130.664 120.646 130.664C120.614 130.024 120.582 129.376 120.55 128.72C120.534 128.064 120.486 127.408 120.406 126.752C120.342 126.08 120.246 125.424 120.118 124.784C119.99 124.16 119.822 123.544 119.614 122.936C120.014 124.2 120.246 125.464 120.31 126.728C120.39 128.008 120.454 129.272 120.502 130.52C120.39 130.408 120.302 130.352 120.238 130.352C120.19 130.352 120.158 130.384 120.142 130.448V131.168C120.142 131.376 120.142 131.592 120.142 131.816C120.158 132.04 120.182 132.232 120.214 132.392C120.182 133.048 120.15 133.52 120.118 133.808C120.102 134.08 120.046 134.256 119.95 134.336C119.822 134.336 119.71 134.264 119.614 134.12C119.518 133.976 119.422 133.792 119.326 133.568C119.246 133.344 119.166 133.096 119.086 132.824C119.006 132.552 118.926 132.288 118.846 132.032V131.384C118.846 130.68 118.838 129.944 118.822 129.176C118.822 128.408 118.79 127.664 118.726 126.944C118.678 126.208 118.59 125.512 118.462 124.856C118.35 124.2 118.19 123.624 117.982 123.128C117.79 122.616 117.534 122.216 117.214 121.928C116.91 121.64 116.534 121.496 116.086 121.496C115.718 121.496 115.382 121.592 115.078 121.784C114.902 121.896 114.726 122.04 114.55 122.216C114.726 122.056 114.91 121.92 115.102 121.808C115.406 121.616 115.734 121.52 116.086 121.52H116.182C116.582 121.52 116.918 121.68 117.19 122C117.478 122.304 117.71 122.712 117.886 123.224C118.078 123.736 118.222 124.32 118.318 124.976C118.414 125.632 118.486 126.312 118.534 127.016C118.598 127.72 118.638 128.424 118.654 129.128C118.67 129.816 118.686 130.448 118.702 131.024C118.606 130.576 118.518 130.048 118.438 129.44C118.374 128.816 118.302 128.168 118.222 127.496C118.158 126.824 118.07 126.16 117.958 125.504C117.862 124.848 117.734 124.264 117.574 123.752C117.414 123.224 117.214 122.8 116.974 122.48C116.734 122.16 116.438 122 116.086 122C115.942 122 115.814 122.016 115.702 122.048C115.59 122.064 115.446 122.144 115.27 122.288L115.03 122.168C114.486 122.648 114.03 123.288 113.662 124.088C113.294 124.888 112.982 125.752 112.726 126.68C112.47 127.592 112.254 128.528 112.078 129.488C111.902 130.448 111.734 131.336 111.574 132.152V133.064C111.83 131.8 112.062 130.56 112.27 129.344C112.494 128.112 112.814 126.92 113.23 125.768C112.91 126.76 112.662 127.784 112.486 128.84C112.31 129.896 112.11 130.976 111.886 132.08C111.886 132.192 111.862 132.344 111.814 132.536C111.766 132.728 111.686 133.016 111.574 133.4L108.934 133.136L108.766 132.848ZM109.03 131.648C108.982 131.216 108.934 130.664 108.886 129.992C108.854 129.32 108.806 128.608 108.742 127.856C108.678 127.104 108.59 126.344 108.478 125.576C108.366 124.808 108.206 124.12 107.998 123.512C107.806 122.888 107.558 122.384 107.254 122C106.966 121.616 106.598 121.424 106.15 121.424C106.006 121.424 105.854 121.456 105.694 121.52C105.534 121.584 105.382 121.656 105.238 121.736C105.286 121.72 105.326 121.712 105.358 121.712H105.382C105.382 121.728 105.358 121.76 105.31 121.808C105.742 121.664 106.078 121.592 106.318 121.592C106.622 121.704 106.894 121.952 107.134 122.336C107.374 122.72 107.574 123.184 107.734 123.728C107.91 124.256 108.054 124.832 108.166 125.456C108.294 126.08 108.39 126.68 108.454 127.256C108.518 127.816 108.566 128.32 108.598 128.768C108.63 129.216 108.646 129.536 108.646 129.728C108.694 130.208 108.734 130.68 108.766 131.144C108.814 131.608 108.838 132.072 108.838 132.536L109.03 131.648ZM111.046 125.192C111.046 125.208 111.062 125.28 111.094 125.408C111.126 125.52 111.15 125.592 111.166 125.624C111.214 125.464 111.318 125.208 111.478 124.856C111.638 124.488 111.814 124.104 112.006 123.704C112.198 123.288 112.382 122.904 112.558 122.552C112.622 122.408 112.678 122.28 112.726 122.168C112.678 122.264 112.614 122.368 112.534 122.48C112.358 122.8 112.166 123.136 111.958 123.488C111.75 123.824 111.558 124.152 111.382 124.472C111.206 124.792 111.094 125.032 111.046 125.192ZM112.942 124.904C112.622 125.72 112.342 126.584 112.102 127.496C111.862 128.392 111.646 129.32 111.454 130.28L111.502 130.664C111.71 129.512 111.95 128.352 112.222 127.184C112.478 126.16 112.806 125.192 113.206 124.28C113.19 124.328 113.174 124.368 113.158 124.4C113.078 124.56 113.006 124.728 112.942 124.904ZM109.03 128.168C109.062 128.424 109.078 128.672 109.078 128.912C109.094 129.152 109.11 129.376 109.126 129.584L109.198 130.736L109.222 130.616C109.206 130.392 109.198 130.176 109.198 129.968V129.368L109.03 128.168ZM116.902 119.936C116.614 119.856 116.342 119.816 116.086 119.816H115.822C115.71 119.816 115.654 119.824 115.654 119.84H115.678C115.934 119.904 116.174 119.936 116.398 119.936H116.902ZM113.35 125.432C113.43 125.208 113.502 124.992 113.566 124.784C113.646 124.576 113.71 124.432 113.758 124.352C113.758 124.384 113.742 124.448 113.71 124.544C113.678 124.656 113.614 124.824 113.518 125.048L113.35 125.432ZM118.558 120.944C118.478 120.848 118.374 120.752 118.246 120.656C118.15 120.592 118.062 120.536 117.982 120.488C118.174 120.616 118.366 120.768 118.558 120.944ZM112.846 121.952C112.814 121.984 112.79 122.032 112.774 122.096C112.806 122.048 112.83 122 112.846 121.952Z" fill="#EAEAEA"/>
</svg>
